<?xml version="1.0" encoding="UTF-8" standalone="no"?><svg xmlns="http://www.w3.org/2000/svg" xmlns:xlink="http://www.w3.org/1999/xlink" contentStyleType="text/css" height="743px" preserveAspectRatio="none" style="width:1242px;height:743px;background:#EEF9E3;" version="1.1" viewBox="0 0 1242 743" width="1242px" zoomAndPan="magnify"><defs/><g><!--MD5=[490233739604cc465c8ef9025fb915fa]
cluster IDE--><g id="cluster_IDE"><path d="M660.5,73 L684.5,73 A3.75,3.75 0 0 1 687,75.5 L694,96.6094 L829.5,96.6094 A2.5,2.5 0 0 1 832,99.1094 L832,240.5 A2.5,2.5 0 0 1 829.5,243 L660.5,243 A2.5,2.5 0 0 1 658,240.5 L658,75.5 A2.5,2.5 0 0 1 660.5,73 " fill="#D3D3D3" style="stroke:#A9A9A9;stroke-width:1.5;"/><line style="stroke:#A9A9A9;stroke-width:1.5;" x1="658" x2="694" y1="96.6094" y2="96.6094"/><text fill="#000000" font-family="sans-serif" font-size="14" font-weight="bold" lengthAdjust="spacing" textLength="23" x="662" y="89.5332">IDE</text></g><!--MD5=[9f66875789d1a6c9b3eb256284f12255]
cluster Big Data Tools--><g id="cluster_Big Data Tools"><path d="M697.5,267 L798.5,267 A3.75,3.75 0 0 1 801,269.5 L808,290.6094 L1226.5,290.6094 A2.5,2.5 0 0 1 1229,293.1094 L1229,470.5 A2.5,2.5 0 0 1 1226.5,473 L697.5,473 A2.5,2.5 0 0 1 695,470.5 L695,269.5 A2.5,2.5 0 0 1 697.5,267 " fill="#D3D3D3" style="stroke:#A9A9A9;stroke-width:1.5;"/><line style="stroke:#A9A9A9;stroke-width:1.5;" x1="695" x2="808" y1="290.6094" y2="290.6094"/><text fill="#000000" font-family="sans-serif" font-size="14" font-weight="bold" lengthAdjust="spacing" textLength="100" x="699" y="283.5332">Big Data Tools</text></g><!--MD5=[f9717d966a4a4603ff1538844b06c243]
cluster NoSQL Databases--><g id="cluster_NoSQL Databases"><path d="M20.5,293.5 L145.5,293.5 A3.75,3.75 0 0 1 148,296 L155,317.1094 L668.5,317.1094 A2.5,2.5 0 0 1 671,319.6094 L671,444 A2.5,2.5 0 0 1 668.5,446.5 L20.5,446.5 A2.5,2.5 0 0 1 18,444 L18,296 A2.5,2.5 0 0 1 20.5,293.5 " fill="#D3D3D3" style="stroke:#A9A9A9;stroke-width:1.5;"/><line style="stroke:#A9A9A9;stroke-width:1.5;" x1="18" x2="155" y1="317.1094" y2="317.1094"/><text fill="#000000" font-family="sans-serif" font-size="14" font-weight="bold" lengthAdjust="spacing" textLength="124" x="22" y="310.0332">NoSQL Databases</text></g><!--MD5=[8a63cbc2f1c780ddf3e229d615ddd269]
cluster Infraestrutura--><g id="cluster_Infraestrutura"><path d="M574.5,497 L672.5,497 A3.75,3.75 0 0 1 675,499.5 L682,520.6094 L913.5,520.6094 A2.5,2.5 0 0 1 916,523.1094 L916,647.5 A2.5,2.5 0 0 1 913.5,650 L574.5,650 A2.5,2.5 0 0 1 572,647.5 L572,499.5 A2.5,2.5 0 0 1 574.5,497 " fill="#D3D3D3" style="stroke:#A9A9A9;stroke-width:1.5;"/><line style="stroke:#A9A9A9;stroke-width:1.5;" x1="572" x2="682" y1="520.6094" y2="520.6094"/><text fill="#000000" font-family="sans-serif" font-size="14" font-weight="bold" lengthAdjust="spacing" textLength="97" x="576" y="513.5332">Infraestrutura</text></g><!--MD5=[480b300d3a7fcef9af84f2029c003cd3]
class Jupyter Notebook--><g id="elem_Jupyter Notebook"><rect codeLine="23" fill="#F5F5F5" height="118.4375" id="Jupyter Notebook" rx="2.5" ry="2.5" style="stroke:#A9A9A9;stroke-width:0.5;" width="142" x="674" y="109"/><ellipse cx="689" cy="125" fill="#ADD1B2" rx="11" ry="11" style="stroke:#181818;stroke-width:1.0;"/><path d="M691.7656,120.875 Q691.9219,120.6563 692.1094,120.5469 Q692.2969,120.4375 692.5156,120.4375 Q692.8906,120.4375 693.125,120.6953 Q693.3594,120.9531 693.3594,121.5625 L693.3594,123.0156 Q693.3594,123.625 693.125,123.8906 Q692.8906,124.1563 692.5156,124.1563 Q692.1719,124.1563 691.9688,123.9531 Q691.7656,123.7656 691.6563,123.25 Q691.6094,122.8906 691.4219,122.7031 Q691.0938,122.3281 690.4844,122.1094 Q689.875,121.8906 689.25,121.8906 Q688.4844,121.8906 687.8516,122.2188 Q687.2188,122.5469 686.7266,123.2969 Q686.2344,124.0469 686.2344,125.0781 L686.2344,126.1719 Q686.2344,127.4063 687.125,128.2266 Q688.0156,129.0469 689.6094,129.0469 Q690.5469,129.0469 691.2031,128.7969 Q691.5938,128.6406 692.0156,128.2031 Q692.2813,127.9375 692.4297,127.8594 Q692.5781,127.7813 692.7813,127.7813 Q693.1094,127.7813 693.3672,128.0391 Q693.625,128.2969 693.625,128.6406 Q693.625,128.9844 693.2813,129.3906 Q692.7813,129.9688 691.9844,130.2969 Q690.9063,130.75 689.6094,130.75 Q688.0938,130.75 686.8906,130.125 Q685.9063,129.625 685.2188,128.5547 Q684.5313,127.4844 684.5313,126.2031 L684.5313,125.0469 Q684.5313,123.7188 685.1484,122.5703 Q685.7656,121.4219 686.8594,120.8047 Q687.9531,120.1875 689.1875,120.1875 Q689.9219,120.1875 690.5703,120.3516 Q691.2188,120.5156 691.7656,120.875 Z " fill="#000000"/><text fill="#333333" font-family="sans-serif" font-size="14" lengthAdjust="spacing" textLength="110" x="703" y="130.7285">Jupyter Notebook</text><line style="stroke:#A9A9A9;stroke-width:0.5;" x1="675" x2="815" y1="141" y2="141"/><ellipse cx="685" cy="155.3047" fill="none" rx="3" ry="3" style="stroke:#038048;stroke-width:1.0;"/><text fill="#333333" font-family="sans-serif" font-size="14" lengthAdjust="spacing" textLength="54" x="694" y="159.5332">"Python"</text><ellipse cx="685" cy="172.9141" fill="none" rx="3" ry="3" style="stroke:#038048;stroke-width:1.0;"/><text fill="#333333" font-family="sans-serif" font-size="14" lengthAdjust="spacing" textLength="20" x="694" y="177.1426">"R"</text><ellipse cx="685" cy="190.5234" fill="none" rx="3" ry="3" style="stroke:#038048;stroke-width:1.0;"/><text fill="#333333" font-family="sans-serif" font-size="14" lengthAdjust="spacing" textLength="45" x="694" y="194.752">"Scala"</text><ellipse cx="685" cy="208.1328" fill="none" rx="3" ry="3" style="stroke:#038048;stroke-width:1.0;"/><text fill="#333333" font-family="sans-serif" font-size="14" lengthAdjust="spacing" textLength="76" x="694" y="212.3613">"Dataframe"</text><line style="stroke:#A9A9A9;stroke-width:0.5;" x1="675" x2="815" y1="219.4375" y2="219.4375"/></g><!--MD5=[bdad268dccc37c0be865f8456516a302]
class Spark Framework--><g id="elem_Spark Framework"><rect codeLine="34" fill="#F5F5F5" height="136.0469" id="Spark Framework" rx="2.5" ry="2.5" style="stroke:#A9A9A9;stroke-width:0.5;" width="143" x="879.5" y="312"/><ellipse cx="894.5" cy="328" fill="#ADD1B2" rx="11" ry="11" style="stroke:#181818;stroke-width:1.0;"/><path d="M897.2656,323.875 Q897.4219,323.6563 897.6094,323.5469 Q897.7969,323.4375 898.0156,323.4375 Q898.3906,323.4375 898.625,323.6953 Q898.8594,323.9531 898.8594,324.5625 L898.8594,326.0156 Q898.8594,326.625 898.625,326.8906 Q898.3906,327.1563 898.0156,327.1563 Q897.6719,327.1563 897.4688,326.9531 Q897.2656,326.7656 897.1563,326.25 Q897.1094,325.8906 896.9219,325.7031 Q896.5938,325.3281 895.9844,325.1094 Q895.375,324.8906 894.75,324.8906 Q893.9844,324.8906 893.3516,325.2188 Q892.7188,325.5469 892.2266,326.2969 Q891.7344,327.0469 891.7344,328.0781 L891.7344,329.1719 Q891.7344,330.4063 892.625,331.2266 Q893.5156,332.0469 895.1094,332.0469 Q896.0469,332.0469 896.7031,331.7969 Q897.0938,331.6406 897.5156,331.2031 Q897.7813,330.9375 897.9297,330.8594 Q898.0781,330.7813 898.2813,330.7813 Q898.6094,330.7813 898.8672,331.0391 Q899.125,331.2969 899.125,331.6406 Q899.125,331.9844 898.7813,332.3906 Q898.2813,332.9688 897.4844,333.2969 Q896.4063,333.75 895.1094,333.75 Q893.5938,333.75 892.3906,333.125 Q891.4063,332.625 890.7188,331.5547 Q890.0313,330.4844 890.0313,329.2031 L890.0313,328.0469 Q890.0313,326.7188 890.6484,325.5703 Q891.2656,324.4219 892.3594,323.8047 Q893.4531,323.1875 894.6875,323.1875 Q895.4219,323.1875 896.0703,323.3516 Q896.7188,323.5156 897.2656,323.875 Z " fill="#000000"/><text fill="#333333" font-family="sans-serif" font-size="14" lengthAdjust="spacing" textLength="111" x="908.5" y="333.7285">Spark Framework</text><line style="stroke:#A9A9A9;stroke-width:0.5;" x1="880.5" x2="1021.5" y1="344" y2="344"/><ellipse cx="890.5" cy="358.3047" fill="none" rx="3" ry="3" style="stroke:#038048;stroke-width:1.0;"/><text fill="#333333" font-family="sans-serif" font-size="14" lengthAdjust="spacing" textLength="79" x="899.5" y="362.5332">"Spark SQL"</text><ellipse cx="890.5" cy="375.9141" fill="none" rx="3" ry="3" style="stroke:#038048;stroke-width:1.0;"/><text fill="#333333" font-family="sans-serif" font-size="14" lengthAdjust="spacing" textLength="115" x="899.5" y="380.1426">"Spark Streaming"</text><ellipse cx="890.5" cy="393.5234" fill="none" rx="3" ry="3" style="stroke:#038048;stroke-width:1.0;"/><text fill="#333333" font-family="sans-serif" font-size="14" lengthAdjust="spacing" textLength="84" x="899.5" y="397.752">"Spark MLlib"</text><ellipse cx="890.5" cy="411.1328" fill="none" rx="3" ry="3" style="stroke:#038048;stroke-width:1.0;"/><text fill="#333333" font-family="sans-serif" font-size="14" lengthAdjust="spacing" textLength="58" x="899.5" y="415.3613">"GraphX"</text><ellipse cx="890.5" cy="428.7422" fill="none" rx="3" ry="3" style="stroke:#038048;stroke-width:1.0;"/><text fill="#333333" font-family="sans-serif" font-size="14" lengthAdjust="spacing" textLength="40" x="899.5" y="432.9707">"RDD"</text><line style="stroke:#A9A9A9;stroke-width:0.5;" x1="880.5" x2="1021.5" y1="440.0469" y2="440.0469"/></g><!--MD5=[d4c7bf8e5c58f7a720fba19a0772eb55]
class Hadoop Framework--><g id="elem_Hadoop Framework"><rect codeLine="42" fill="#F5F5F5" height="153.6563" id="Hadoop Framework" rx="2.5" ry="2.5" style="stroke:#A9A9A9;stroke-width:0.5;" width="155" x="1057.5" y="303"/><ellipse cx="1072.5" cy="319" fill="#ADD1B2" rx="11" ry="11" style="stroke:#181818;stroke-width:1.0;"/><path d="M1075.2656,314.875 Q1075.4219,314.6563 1075.6094,314.5469 Q1075.7969,314.4375 1076.0156,314.4375 Q1076.3906,314.4375 1076.625,314.6953 Q1076.8594,314.9531 1076.8594,315.5625 L1076.8594,317.0156 Q1076.8594,317.625 1076.625,317.8906 Q1076.3906,318.1563 1076.0156,318.1563 Q1075.6719,318.1563 1075.4688,317.9531 Q1075.2656,317.7656 1075.1563,317.25 Q1075.1094,316.8906 1074.9219,316.7031 Q1074.5938,316.3281 1073.9844,316.1094 Q1073.375,315.8906 1072.75,315.8906 Q1071.9844,315.8906 1071.3516,316.2188 Q1070.7188,316.5469 1070.2266,317.2969 Q1069.7344,318.0469 1069.7344,319.0781 L1069.7344,320.1719 Q1069.7344,321.4063 1070.625,322.2266 Q1071.5156,323.0469 1073.1094,323.0469 Q1074.0469,323.0469 1074.7031,322.7969 Q1075.0938,322.6406 1075.5156,322.2031 Q1075.7813,321.9375 1075.9297,321.8594 Q1076.0781,321.7813 1076.2813,321.7813 Q1076.6094,321.7813 1076.8672,322.0391 Q1077.125,322.2969 1077.125,322.6406 Q1077.125,322.9844 1076.7813,323.3906 Q1076.2813,323.9688 1075.4844,324.2969 Q1074.4063,324.75 1073.1094,324.75 Q1071.5938,324.75 1070.3906,324.125 Q1069.4063,323.625 1068.7188,322.5547 Q1068.0313,321.4844 1068.0313,320.2031 L1068.0313,319.0469 Q1068.0313,317.7188 1068.6484,316.5703 Q1069.2656,315.4219 1070.3594,314.8047 Q1071.4531,314.1875 1072.6875,314.1875 Q1073.4219,314.1875 1074.0703,314.3516 Q1074.7188,314.5156 1075.2656,314.875 Z " fill="#000000"/><text fill="#333333" font-family="sans-serif" font-size="14" lengthAdjust="spacing" textLength="123" x="1086.5" y="324.7285">Hadoop Framework</text><line style="stroke:#A9A9A9;stroke-width:0.5;" x1="1058.5" x2="1211.5" y1="335" y2="335"/><ellipse cx="1068.5" cy="349.3047" fill="none" rx="3" ry="3" style="stroke:#038048;stroke-width:1.0;"/><text fill="#333333" font-family="sans-serif" font-size="14" lengthAdjust="spacing" textLength="47" x="1077.5" y="353.5332">"HDFS"</text><ellipse cx="1068.5" cy="366.9141" fill="none" rx="3" ry="3" style="stroke:#038048;stroke-width:1.0;"/><text fill="#333333" font-family="sans-serif" font-size="14" lengthAdjust="spacing" textLength="86" x="1077.5" y="371.1426">"MapReduce"</text><ellipse cx="1068.5" cy="384.5234" fill="none" rx="3" ry="3" style="stroke:#038048;stroke-width:1.0;"/><text fill="#333333" font-family="sans-serif" font-size="14" lengthAdjust="spacing" textLength="47" x="1077.5" y="388.752">"YARN"</text><ellipse cx="1068.5" cy="402.1328" fill="none" rx="3" ry="3" style="stroke:#038048;stroke-width:1.0;"/><text fill="#333333" font-family="sans-serif" font-size="14" lengthAdjust="spacing" textLength="37" x="1077.5" y="406.3613">"Hive"</text><ellipse cx="1068.5" cy="419.7422" fill="none" rx="3" ry="3" style="stroke:#038048;stroke-width:1.0;"/><text fill="#333333" font-family="sans-serif" font-size="14" lengthAdjust="spacing" textLength="51" x="1077.5" y="423.9707">"HBase"</text><ellipse cx="1068.5" cy="437.3516" fill="none" rx="3" ry="3" style="stroke:#038048;stroke-width:1.0;"/><text fill="#333333" font-family="sans-serif" font-size="14" lengthAdjust="spacing" textLength="35" x="1077.5" y="441.5801">"Hue"</text><line style="stroke:#A9A9A9;stroke-width:0.5;" x1="1058.5" x2="1211.5" y1="448.6563" y2="448.6563"/></g><!--MD5=[685134e94d5cb008bd55c3607fa79616]
class Additional Tools--><g id="elem_Additional Tools"><rect codeLine="51" fill="#F5F5F5" height="118.4375" id="Additional Tools" rx="2.5" ry="2.5" style="stroke:#A9A9A9;stroke-width:0.5;" width="133" x="711.5" y="321"/><ellipse cx="726.5" cy="337" fill="#ADD1B2" rx="11" ry="11" style="stroke:#181818;stroke-width:1.0;"/><path d="M729.2656,332.875 Q729.4219,332.6563 729.6094,332.5469 Q729.7969,332.4375 730.0156,332.4375 Q730.3906,332.4375 730.625,332.6953 Q730.8594,332.9531 730.8594,333.5625 L730.8594,335.0156 Q730.8594,335.625 730.625,335.8906 Q730.3906,336.1563 730.0156,336.1563 Q729.6719,336.1563 729.4688,335.9531 Q729.2656,335.7656 729.1563,335.25 Q729.1094,334.8906 728.9219,334.7031 Q728.5938,334.3281 727.9844,334.1094 Q727.375,333.8906 726.75,333.8906 Q725.9844,333.8906 725.3516,334.2188 Q724.7188,334.5469 724.2266,335.2969 Q723.7344,336.0469 723.7344,337.0781 L723.7344,338.1719 Q723.7344,339.4063 724.625,340.2266 Q725.5156,341.0469 727.1094,341.0469 Q728.0469,341.0469 728.7031,340.7969 Q729.0938,340.6406 729.5156,340.2031 Q729.7813,339.9375 729.9297,339.8594 Q730.0781,339.7813 730.2813,339.7813 Q730.6094,339.7813 730.8672,340.0391 Q731.125,340.2969 731.125,340.6406 Q731.125,340.9844 730.7813,341.3906 Q730.2813,341.9688 729.4844,342.2969 Q728.4063,342.75 727.1094,342.75 Q725.5938,342.75 724.3906,342.125 Q723.4063,341.625 722.7188,340.5547 Q722.0313,339.4844 722.0313,338.2031 L722.0313,337.0469 Q722.0313,335.7188 722.6484,334.5703 Q723.2656,333.4219 724.3594,332.8047 Q725.4531,332.1875 726.6875,332.1875 Q727.4219,332.1875 728.0703,332.3516 Q728.7188,332.5156 729.2656,332.875 Z " fill="#000000"/><text fill="#333333" font-family="sans-serif" font-size="14" lengthAdjust="spacing" textLength="101" x="740.5" y="342.7285">Additional Tools</text><line style="stroke:#A9A9A9;stroke-width:0.5;" x1="712.5" x2="843.5" y1="353" y2="353"/><ellipse cx="722.5" cy="367.3047" fill="none" rx="3" ry="3" style="stroke:#038048;stroke-width:1.0;"/><text fill="#333333" font-family="sans-serif" font-size="14" lengthAdjust="spacing" textLength="43" x="731.5" y="371.5332">"Trino"</text><ellipse cx="722.5" cy="384.9141" fill="none" rx="3" ry="3" style="stroke:#038048;stroke-width:1.0;"/><text fill="#333333" font-family="sans-serif" font-size="14" lengthAdjust="spacing" textLength="29" x="731.5" y="389.1426">"Nifi"</text><ellipse cx="722.5" cy="402.5234" fill="none" rx="3" ry="3" style="stroke:#038048;stroke-width:1.0;"/><text fill="#333333" font-family="sans-serif" font-size="14" lengthAdjust="spacing" textLength="46" x="731.5" y="406.752">"Kafka"</text><ellipse cx="722.5" cy="420.1328" fill="none" rx="3" ry="3" style="stroke:#038048;stroke-width:1.0;"/><text fill="#333333" font-family="sans-serif" font-size="14" lengthAdjust="spacing" textLength="78" x="731.5" y="424.3613">"Zookeeper"</text><line style="stroke:#A9A9A9;stroke-width:0.5;" x1="712.5" x2="843.5" y1="431.4375" y2="431.4375"/></g><!--MD5=[aea1937f4b67311897318c410219d001]
class MongoDB--><g id="elem_MongoDB"><rect codeLine="66" fill="#F5F5F5" height="100.8281" id="MongoDB" rx="2.5" ry="2.5" style="stroke:#A9A9A9;stroke-width:0.5;" width="170" x="485" y="329.5"/><ellipse cx="534.75" cy="345.5" fill="#ADD1B2" rx="11" ry="11" style="stroke:#181818;stroke-width:1.0;"/><path d="M537.5156,341.375 Q537.6719,341.1563 537.8594,341.0469 Q538.0469,340.9375 538.2656,340.9375 Q538.6406,340.9375 538.875,341.1953 Q539.1094,341.4531 539.1094,342.0625 L539.1094,343.5156 Q539.1094,344.125 538.875,344.3906 Q538.6406,344.6563 538.2656,344.6563 Q537.9219,344.6563 537.7188,344.4531 Q537.5156,344.2656 537.4063,343.75 Q537.3594,343.3906 537.1719,343.2031 Q536.8438,342.8281 536.2344,342.6094 Q535.625,342.3906 535,342.3906 Q534.2344,342.3906 533.6016,342.7188 Q532.9688,343.0469 532.4766,343.7969 Q531.9844,344.5469 531.9844,345.5781 L531.9844,346.6719 Q531.9844,347.9063 532.875,348.7266 Q533.7656,349.5469 535.3594,349.5469 Q536.2969,349.5469 536.9531,349.2969 Q537.3438,349.1406 537.7656,348.7031 Q538.0313,348.4375 538.1797,348.3594 Q538.3281,348.2813 538.5313,348.2813 Q538.8594,348.2813 539.1172,348.5391 Q539.375,348.7969 539.375,349.1406 Q539.375,349.4844 539.0313,349.8906 Q538.5313,350.4688 537.7344,350.7969 Q536.6563,351.25 535.3594,351.25 Q533.8438,351.25 532.6406,350.625 Q531.6563,350.125 530.9688,349.0547 Q530.2813,347.9844 530.2813,346.7031 L530.2813,345.5469 Q530.2813,344.2188 530.8984,343.0703 Q531.5156,341.9219 532.6094,341.3047 Q533.7031,340.6875 534.9375,340.6875 Q535.6719,340.6875 536.3203,340.8516 Q536.9688,341.0156 537.5156,341.375 Z " fill="#000000"/><text fill="#333333" font-family="sans-serif" font-size="14" lengthAdjust="spacing" textLength="62" x="555.25" y="351.2285">MongoDB</text><line style="stroke:#A9A9A9;stroke-width:0.5;" x1="486" x2="654" y1="361.5" y2="361.5"/><ellipse cx="496" cy="375.8047" fill="none" rx="3" ry="3" style="stroke:#038048;stroke-width:1.0;"/><text fill="#333333" font-family="sans-serif" font-size="14" lengthAdjust="spacing" textLength="79" x="505" y="380.0332">"Collections"</text><ellipse cx="496" cy="393.4141" fill="none" rx="3" ry="3" style="stroke:#038048;stroke-width:1.0;"/><text fill="#333333" font-family="sans-serif" font-size="14" lengthAdjust="spacing" textLength="144" x="505" y="397.6426">"JSON-like documents"</text><ellipse cx="496" cy="411.0234" fill="none" rx="3" ry="3" style="stroke:#038048;stroke-width:1.0;"/><text fill="#333333" font-family="sans-serif" font-size="14" lengthAdjust="spacing" textLength="55" x="505" y="415.252">"Shards"</text><line style="stroke:#A9A9A9;stroke-width:0.5;" x1="486" x2="654" y1="422.3281" y2="422.3281"/></g><!--MD5=[e07647c16d73d60ccd38798b3baff9a5]
class Redis--><g id="elem_Redis"><rect codeLine="71" fill="#F5F5F5" height="100.8281" id="Redis" rx="2.5" ry="2.5" style="stroke:#A9A9A9;stroke-width:0.5;" width="102" x="34" y="329.5"/><ellipse cx="64.3" cy="345.5" fill="#ADD1B2" rx="11" ry="11" style="stroke:#181818;stroke-width:1.0;"/><path d="M67.0656,341.375 Q67.2219,341.1563 67.4094,341.0469 Q67.5969,340.9375 67.8156,340.9375 Q68.1906,340.9375 68.425,341.1953 Q68.6594,341.4531 68.6594,342.0625 L68.6594,343.5156 Q68.6594,344.125 68.425,344.3906 Q68.1906,344.6563 67.8156,344.6563 Q67.4719,344.6563 67.2688,344.4531 Q67.0656,344.2656 66.9563,343.75 Q66.9094,343.3906 66.7219,343.2031 Q66.3938,342.8281 65.7844,342.6094 Q65.175,342.3906 64.55,342.3906 Q63.7844,342.3906 63.1516,342.7188 Q62.5188,343.0469 62.0266,343.7969 Q61.5344,344.5469 61.5344,345.5781 L61.5344,346.6719 Q61.5344,347.9063 62.425,348.7266 Q63.3156,349.5469 64.9094,349.5469 Q65.8469,349.5469 66.5031,349.2969 Q66.8938,349.1406 67.3156,348.7031 Q67.5813,348.4375 67.7297,348.3594 Q67.8781,348.2813 68.0813,348.2813 Q68.4094,348.2813 68.6672,348.5391 Q68.925,348.7969 68.925,349.1406 Q68.925,349.4844 68.5813,349.8906 Q68.0813,350.4688 67.2844,350.7969 Q66.2063,351.25 64.9094,351.25 Q63.3938,351.25 62.1906,350.625 Q61.2063,350.125 60.5188,349.0547 Q59.8313,347.9844 59.8313,346.7031 L59.8313,345.5469 Q59.8313,344.2188 60.4484,343.0703 Q61.0656,341.9219 62.1594,341.3047 Q63.2531,340.6875 64.4875,340.6875 Q65.2219,340.6875 65.8703,340.8516 Q66.5188,341.0156 67.0656,341.375 Z " fill="#000000"/><text fill="#333333" font-family="sans-serif" font-size="14" lengthAdjust="spacing" textLength="36" x="81.7" y="351.2285">Redis</text><line style="stroke:#A9A9A9;stroke-width:0.5;" x1="35" x2="135" y1="361.5" y2="361.5"/><ellipse cx="45" cy="375.8047" fill="none" rx="3" ry="3" style="stroke:#038048;stroke-width:1.0;"/><text fill="#333333" font-family="sans-serif" font-size="14" lengthAdjust="spacing" textLength="76" x="54" y="380.0332">"In-Memory"</text><ellipse cx="45" cy="393.4141" fill="none" rx="3" ry="3" style="stroke:#038048;stroke-width:1.0;"/><text fill="#333333" font-family="sans-serif" font-size="14" lengthAdjust="spacing" textLength="51" x="54" y="397.6426">"Cache"</text><ellipse cx="45" cy="411.0234" fill="none" rx="3" ry="3" style="stroke:#038048;stroke-width:1.0;"/><text fill="#333333" font-family="sans-serif" font-size="14" lengthAdjust="spacing" textLength="64" x="54" y="415.252">"Pub/Sub"</text><line style="stroke:#A9A9A9;stroke-width:0.5;" x1="35" x2="135" y1="422.3281" y2="422.3281"/></g><!--MD5=[31096ecdc74a086c345187ae466806f2]
class Cassandra--><g id="elem_Cassandra"><rect codeLine="76" fill="#F5F5F5" height="83.2188" id="Cassandra" rx="2.5" ry="2.5" style="stroke:#A9A9A9;stroke-width:0.5;" width="122" x="171" y="338.5"/><ellipse cx="195.45" cy="354.5" fill="#ADD1B2" rx="11" ry="11" style="stroke:#181818;stroke-width:1.0;"/><path d="M198.2156,350.375 Q198.3719,350.1563 198.5594,350.0469 Q198.7469,349.9375 198.9656,349.9375 Q199.3406,349.9375 199.575,350.1953 Q199.8094,350.4531 199.8094,351.0625 L199.8094,352.5156 Q199.8094,353.125 199.575,353.3906 Q199.3406,353.6563 198.9656,353.6563 Q198.6219,353.6563 198.4188,353.4531 Q198.2156,353.2656 198.1063,352.75 Q198.0594,352.3906 197.8719,352.2031 Q197.5438,351.8281 196.9344,351.6094 Q196.325,351.3906 195.7,351.3906 Q194.9344,351.3906 194.3016,351.7188 Q193.6688,352.0469 193.1766,352.7969 Q192.6844,353.5469 192.6844,354.5781 L192.6844,355.6719 Q192.6844,356.9063 193.575,357.7266 Q194.4656,358.5469 196.0594,358.5469 Q196.9969,358.5469 197.6531,358.2969 Q198.0438,358.1406 198.4656,357.7031 Q198.7313,357.4375 198.8797,357.3594 Q199.0281,357.2813 199.2313,357.2813 Q199.5594,357.2813 199.8172,357.5391 Q200.075,357.7969 200.075,358.1406 Q200.075,358.4844 199.7313,358.8906 Q199.2313,359.4688 198.4344,359.7969 Q197.3563,360.25 196.0594,360.25 Q194.5438,360.25 193.3406,359.625 Q192.3563,359.125 191.6688,358.0547 Q190.9813,356.9844 190.9813,355.7031 L190.9813,354.5469 Q190.9813,353.2188 191.5984,352.0703 Q192.2156,350.9219 193.3094,350.3047 Q194.4031,349.6875 195.6375,349.6875 Q196.3719,349.6875 197.0203,349.8516 Q197.6688,350.0156 198.2156,350.375 Z " fill="#000000"/><text fill="#333333" font-family="sans-serif" font-size="14" lengthAdjust="spacing" textLength="69" x="211.55" y="360.2285">Cassandra</text><line style="stroke:#A9A9A9;stroke-width:0.5;" x1="172" x2="292" y1="370.5" y2="370.5"/><ellipse cx="182" cy="384.8047" fill="none" rx="3" ry="3" style="stroke:#038048;stroke-width:1.0;"/><text fill="#333333" font-family="sans-serif" font-size="14" lengthAdjust="spacing" textLength="78" x="191" y="389.0332">"Distributed"</text><ellipse cx="182" cy="402.4141" fill="none" rx="3" ry="3" style="stroke:#038048;stroke-width:1.0;"/><text fill="#333333" font-family="sans-serif" font-size="14" lengthAdjust="spacing" textLength="96" x="191" y="406.6426">"Decentralized"</text><line style="stroke:#A9A9A9;stroke-width:0.5;" x1="172" x2="292" y1="413.7188" y2="413.7188"/></g><!--MD5=[26b96b1b68645cdc08ee16dbf38167dd]
class Neo4j--><g id="elem_Neo4j"><rect codeLine="80" fill="#F5F5F5" height="83.2188" id="Neo4j" rx="2.5" ry="2.5" style="stroke:#A9A9A9;stroke-width:0.5;" width="121" x="328.5" y="338.5"/><ellipse cx="367.35" cy="354.5" fill="#ADD1B2" rx="11" ry="11" style="stroke:#181818;stroke-width:1.0;"/><path d="M370.1156,350.375 Q370.2719,350.1563 370.4594,350.0469 Q370.6469,349.9375 370.8656,349.9375 Q371.2406,349.9375 371.475,350.1953 Q371.7094,350.4531 371.7094,351.0625 L371.7094,352.5156 Q371.7094,353.125 371.475,353.3906 Q371.2406,353.6563 370.8656,353.6563 Q370.5219,353.6563 370.3188,353.4531 Q370.1156,353.2656 370.0063,352.75 Q369.9594,352.3906 369.7719,352.2031 Q369.4438,351.8281 368.8344,351.6094 Q368.225,351.3906 367.6,351.3906 Q366.8344,351.3906 366.2016,351.7188 Q365.5688,352.0469 365.0766,352.7969 Q364.5844,353.5469 364.5844,354.5781 L364.5844,355.6719 Q364.5844,356.9063 365.475,357.7266 Q366.3656,358.5469 367.9594,358.5469 Q368.8969,358.5469 369.5531,358.2969 Q369.9438,358.1406 370.3656,357.7031 Q370.6313,357.4375 370.7797,357.3594 Q370.9281,357.2813 371.1313,357.2813 Q371.4594,357.2813 371.7172,357.5391 Q371.975,357.7969 371.975,358.1406 Q371.975,358.4844 371.6313,358.8906 Q371.1313,359.4688 370.3344,359.7969 Q369.2563,360.25 367.9594,360.25 Q366.4438,360.25 365.2406,359.625 Q364.2563,359.125 363.5688,358.0547 Q362.8813,356.9844 362.8813,355.7031 L362.8813,354.5469 Q362.8813,353.2188 363.4984,352.0703 Q364.1156,350.9219 365.2094,350.3047 Q366.3031,349.6875 367.5375,349.6875 Q368.2719,349.6875 368.9203,349.8516 Q369.5688,350.0156 370.1156,350.375 Z " fill="#000000"/><text fill="#333333" font-family="sans-serif" font-size="14" lengthAdjust="spacing" textLength="36" x="386.65" y="360.2285">Neo4j</text><line style="stroke:#A9A9A9;stroke-width:0.5;" x1="329.5" x2="448.5" y1="370.5" y2="370.5"/><ellipse cx="339.5" cy="384.8047" fill="none" rx="3" ry="3" style="stroke:#038048;stroke-width:1.0;"/><text fill="#333333" font-family="sans-serif" font-size="14" lengthAdjust="spacing" textLength="50" x="348.5" y="389.0332">"Nodes"</text><ellipse cx="339.5" cy="402.4141" fill="none" rx="3" ry="3" style="stroke:#038048;stroke-width:1.0;"/><text fill="#333333" font-family="sans-serif" font-size="14" lengthAdjust="spacing" textLength="95" x="348.5" y="406.6426">"Relationships"</text><line style="stroke:#A9A9A9;stroke-width:0.5;" x1="329.5" x2="448.5" y1="413.7188" y2="413.7188"/></g><!--MD5=[3b00a3ba944e7dbba797678f3d263439]
class Docker--><g id="elem_Docker"><rect codeLine="96" fill="#F5F5F5" height="83.2188" id="Docker" rx="2.5" ry="2.5" style="stroke:#A9A9A9;stroke-width:0.5;" width="105" x="794.5" y="542"/><ellipse cx="822.1" cy="558" fill="#ADD1B2" rx="11" ry="11" style="stroke:#181818;stroke-width:1.0;"/><path d="M824.8656,553.875 Q825.0219,553.6563 825.2094,553.5469 Q825.3969,553.4375 825.6156,553.4375 Q825.9906,553.4375 826.225,553.6953 Q826.4594,553.9531 826.4594,554.5625 L826.4594,556.0156 Q826.4594,556.625 826.225,556.8906 Q825.9906,557.1563 825.6156,557.1563 Q825.2719,557.1563 825.0688,556.9531 Q824.8656,556.7656 824.7563,556.25 Q824.7094,555.8906 824.5219,555.7031 Q824.1938,555.3281 823.5844,555.1094 Q822.975,554.8906 822.35,554.8906 Q821.5844,554.8906 820.9516,555.2188 Q820.3188,555.5469 819.8266,556.2969 Q819.3344,557.0469 819.3344,558.0781 L819.3344,559.1719 Q819.3344,560.4063 820.225,561.2266 Q821.1156,562.0469 822.7094,562.0469 Q823.6469,562.0469 824.3031,561.7969 Q824.6938,561.6406 825.1156,561.2031 Q825.3813,560.9375 825.5297,560.8594 Q825.6781,560.7813 825.8813,560.7813 Q826.2094,560.7813 826.4672,561.0391 Q826.725,561.2969 826.725,561.6406 Q826.725,561.9844 826.3813,562.3906 Q825.8813,562.9688 825.0844,563.2969 Q824.0063,563.75 822.7094,563.75 Q821.1938,563.75 819.9906,563.125 Q819.0063,562.625 818.3188,561.5547 Q817.6313,560.4844 817.6313,559.2031 L817.6313,558.0469 Q817.6313,556.7188 818.2484,555.5703 Q818.8656,554.4219 819.9594,553.8047 Q821.0531,553.1875 822.2875,553.1875 Q823.0219,553.1875 823.6703,553.3516 Q824.3188,553.5156 824.8656,553.875 Z " fill="#000000"/><text fill="#333333" font-family="sans-serif" font-size="14" lengthAdjust="spacing" textLength="45" x="838.9" y="563.7285">Docker</text><line style="stroke:#A9A9A9;stroke-width:0.5;" x1="795.5" x2="898.5" y1="574" y2="574"/><ellipse cx="805.5" cy="588.3047" fill="none" rx="3" ry="3" style="stroke:#038048;stroke-width:1.0;"/><text fill="#333333" font-family="sans-serif" font-size="14" lengthAdjust="spacing" textLength="79" x="814.5" y="592.5332">"Containers"</text><ellipse cx="805.5" cy="605.9141" fill="none" rx="3" ry="3" style="stroke:#038048;stroke-width:1.0;"/><text fill="#333333" font-family="sans-serif" font-size="14" lengthAdjust="spacing" textLength="73" x="814.5" y="610.1426">"Dockerfile"</text><line style="stroke:#A9A9A9;stroke-width:0.5;" x1="795.5" x2="898.5" y1="617.2188" y2="617.2188"/></g><!--MD5=[7991ace91c3d002c786832d182c77ab7]
class Docker Compose--><g id="elem_Docker Compose"><rect codeLine="100" fill="#F5F5F5" height="100.8281" id="Docker Compose" rx="2.5" ry="2.5" style="stroke:#A9A9A9;stroke-width:0.5;" width="171" x="588.5" y="533"/><ellipse cx="617" cy="549" fill="#ADD1B2" rx="11" ry="11" style="stroke:#181818;stroke-width:1.0;"/><path d="M619.7656,544.875 Q619.9219,544.6563 620.1094,544.5469 Q620.2969,544.4375 620.5156,544.4375 Q620.8906,544.4375 621.125,544.6953 Q621.3594,544.9531 621.3594,545.5625 L621.3594,547.0156 Q621.3594,547.625 621.125,547.8906 Q620.8906,548.1563 620.5156,548.1563 Q620.1719,548.1563 619.9688,547.9531 Q619.7656,547.7656 619.6563,547.25 Q619.6094,546.8906 619.4219,546.7031 Q619.0938,546.3281 618.4844,546.1094 Q617.875,545.8906 617.25,545.8906 Q616.4844,545.8906 615.8516,546.2188 Q615.2188,546.5469 614.7266,547.2969 Q614.2344,548.0469 614.2344,549.0781 L614.2344,550.1719 Q614.2344,551.4063 615.125,552.2266 Q616.0156,553.0469 617.6094,553.0469 Q618.5469,553.0469 619.2031,552.7969 Q619.5938,552.6406 620.0156,552.2031 Q620.2813,551.9375 620.4297,551.8594 Q620.5781,551.7813 620.7813,551.7813 Q621.1094,551.7813 621.3672,552.0391 Q621.625,552.2969 621.625,552.6406 Q621.625,552.9844 621.2813,553.3906 Q620.7813,553.9688 619.9844,554.2969 Q618.9063,554.75 617.6094,554.75 Q616.0938,554.75 614.8906,554.125 Q613.9063,553.625 613.2188,552.5547 Q612.5313,551.4844 612.5313,550.2031 L612.5313,549.0469 Q612.5313,547.7188 613.1484,546.5703 Q613.7656,545.4219 614.8594,544.8047 Q615.9531,544.1875 617.1875,544.1875 Q617.9219,544.1875 618.5703,544.3516 Q619.2188,544.5156 619.7656,544.875 Z " fill="#000000"/><text fill="#333333" font-family="sans-serif" font-size="14" lengthAdjust="spacing" textLength="109" x="634" y="554.7285">Docker Compose</text><line style="stroke:#A9A9A9;stroke-width:0.5;" x1="589.5" x2="758.5" y1="565" y2="565"/><ellipse cx="599.5" cy="579.3047" fill="none" rx="3" ry="3" style="stroke:#038048;stroke-width:1.0;"/><text fill="#333333" font-family="sans-serif" font-size="14" lengthAdjust="spacing" textLength="97" x="608.5" y="583.5332">"Orquestração"</text><ellipse cx="599.5" cy="596.9141" fill="none" rx="3" ry="3" style="stroke:#038048;stroke-width:1.0;"/><text fill="#333333" font-family="sans-serif" font-size="14" lengthAdjust="spacing" textLength="145" x="608.5" y="601.1426">"Definição de serviços"</text><ellipse cx="599.5" cy="614.5234" fill="none" rx="3" ry="3" style="stroke:#038048;stroke-width:1.0;"/><text fill="#333333" font-family="sans-serif" font-size="14" lengthAdjust="spacing" textLength="140" x="608.5" y="618.752">"docker-compose.yml"</text><line style="stroke:#A9A9A9;stroke-width:0.5;" x1="589.5" x2="758.5" y1="625.8281" y2="625.8281"/></g><g id="elem_JupyterNote"><path d="M678,6 L678,48.7031 A0,0 0 0 0 678,48.7031 L741,48.7031 L745,108.96 L749,48.7031 L812,48.7031 A0,0 0 0 0 812,48.7031 L812,16 L802,6 L678,6 A0,0 0 0 0 678,6 " fill="#B0C4DE" style="stroke:#181818;stroke-width:0.5;"/><path d="M802,6 L802,16 L812,16 L802,6 " fill="#B0C4DE" style="stroke:#181818;stroke-width:0.5;"/><text fill="#333333" font-family="sans-serif" font-size="13" lengthAdjust="spacing" textLength="100" x="684" y="24.4951">Análise de dados</text><text fill="#333333" font-family="sans-serif" font-size="13" lengthAdjust="spacing" textLength="109" x="688" y="40.8467">e desenvolvimento.</text></g><g id="elem_SparkNote"><path d="M859,146.5 L859,189.2031 A0,0 0 0 0 859,189.2031 L937.07,189.2031 L947.47,311.63 L945.07,189.2031 L1021,189.2031 A0,0 0 0 0 1021,189.2031 L1021,156.5 L1011,146.5 L859,146.5 A0,0 0 0 0 859,146.5 " fill="#B0C4DE" style="stroke:#181818;stroke-width:0.5;"/><path d="M1011,146.5 L1011,156.5 L1021,156.5 L1011,146.5 " fill="#B0C4DE" style="stroke:#181818;stroke-width:0.5;"/><text fill="#333333" font-family="sans-serif" font-size="13" lengthAdjust="spacing" textLength="113" x="865" y="164.9951">Processamento em</text><text fill="#333333" font-family="sans-serif" font-size="13" lengthAdjust="spacing" textLength="137" x="869" y="181.3467">memória para Big Data.</text></g><g id="elem_HadoopNote"><path d="M1056.5,146.5 L1056.5,189.2031 A0,0 0 0 0 1056.5,189.2031 L1140.93,189.2031 L1139,302.64 L1148.93,189.2031 L1235.5,189.2031 A0,0 0 0 0 1235.5,189.2031 L1235.5,156.5 L1225.5,146.5 L1056.5,146.5 A0,0 0 0 0 1056.5,146.5 " fill="#B0C4DE" style="stroke:#181818;stroke-width:0.5;"/><path d="M1225.5,146.5 L1225.5,156.5 L1235.5,156.5 L1225.5,146.5 " fill="#B0C4DE" style="stroke:#181818;stroke-width:0.5;"/><text fill="#333333" font-family="sans-serif" font-size="13" lengthAdjust="spacing" textLength="158" x="1062.5" y="164.9951">Armazenamento distribuído</text><text fill="#333333" font-family="sans-serif" font-size="13" lengthAdjust="spacing" textLength="84" x="1066.5" y="181.3467">e MapReduce.</text></g><g id="elem_MongoDBNote"><path d="M520,146.5 L520,189.2031 A0,0 0 0 0 520,189.2031 L566,189.2031 L570,329.16 L574,189.2031 L620,189.2031 A0,0 0 0 0 620,189.2031 L620,156.5 L610,146.5 L520,146.5 A0,0 0 0 0 520,146.5 " fill="#B0C4DE" style="stroke:#181818;stroke-width:0.5;"/><path d="M610,146.5 L610,156.5 L620,156.5 L610,146.5 " fill="#B0C4DE" style="stroke:#181818;stroke-width:0.5;"/><text fill="#333333" font-family="sans-serif" font-size="13" lengthAdjust="spacing" textLength="67" x="526" y="164.9951">Orientado a</text><text fill="#333333" font-family="sans-serif" font-size="13" lengthAdjust="spacing" textLength="75" x="530" y="181.3467">documentos.</text></g><g id="elem_RedisNote"><path d="M6,146.5 L6,189.2031 A0,0 0 0 0 6,189.2031 L63.86,189.2031 L80.49,329.16 L71.86,189.2031 L126,189.2031 A0,0 0 0 0 126,189.2031 L126,156.5 L116,146.5 L6,146.5 A0,0 0 0 0 6,146.5 " fill="#B0C4DE" style="stroke:#181818;stroke-width:0.5;"/><path d="M116,146.5 L116,156.5 L126,156.5 L116,146.5 " fill="#B0C4DE" style="stroke:#181818;stroke-width:0.5;"/><text fill="#333333" font-family="sans-serif" font-size="13" lengthAdjust="spacing" textLength="95" x="12" y="164.9951">Armazenamento</text><text fill="#333333" font-family="sans-serif" font-size="13" lengthAdjust="spacing" textLength="67" x="16" y="181.3467">chave-valor.</text></g><g id="elem_CassandraNote"><path d="M161.5,155 L161.5,181.3516 A0,0 0 0 0 161.5,181.3516 L228,181.3516 L232,338.39 L236,181.3516 L302.5,181.3516 A0,0 0 0 0 302.5,181.3516 L302.5,165 L292.5,155 L161.5,155 A0,0 0 0 0 161.5,155 " fill="#B0C4DE" style="stroke:#181818;stroke-width:0.5;"/><path d="M292.5,155 L292.5,165 L302.5,165 L292.5,155 " fill="#B0C4DE" style="stroke:#181818;stroke-width:0.5;"/><text fill="#333333" font-family="sans-serif" font-size="13" lengthAdjust="spacing" textLength="120" x="167.5" y="173.4951">Orientado a colunas.</text></g><g id="elem_Neo4jNote"><path d="M337.5,155 L337.5,181.3516 A0,0 0 0 0 337.5,181.3516 L398.19,181.3516 L391.71,338.39 L406.19,181.3516 L468.5,181.3516 A0,0 0 0 0 468.5,181.3516 L468.5,165 L458.5,155 L337.5,155 A0,0 0 0 0 337.5,155 " fill="#B0C4DE" style="stroke:#181818;stroke-width:0.5;"/><path d="M458.5,155 L458.5,165 L468.5,165 L458.5,155 " fill="#B0C4DE" style="stroke:#181818;stroke-width:0.5;"/><text fill="#333333" font-family="sans-serif" font-size="13" lengthAdjust="spacing" textLength="110" x="343.5" y="173.4951">Orientado a grafos.</text></g><g id="elem_DockerNote"><path d="M778.5,694 L778.5,736.7031 A0,0 0 0 0 778.5,736.7031 L917.5,736.7031 A0,0 0 0 0 917.5,736.7031 L917.5,704 L907.5,694 L851.84,694 L847.31,625.28 L843.84,694 L778.5,694 A0,0 0 0 0 778.5,694 " fill="#B0C4DE" style="stroke:#181818;stroke-width:0.5;"/><path d="M907.5,694 L907.5,704 L917.5,704 L907.5,694 " fill="#B0C4DE" style="stroke:#181818;stroke-width:0.5;"/><text fill="#333333" font-family="sans-serif" font-size="13" lengthAdjust="spacing" textLength="98" x="784.5" y="712.4951">Contêineres para</text><text fill="#333333" font-family="sans-serif" font-size="13" lengthAdjust="spacing" textLength="114" x="788.5" y="728.8467">serviços individuais.</text></g><g id="elem_DockerComposeNote"><path d="M601,694 L601,736.7031 A0,0 0 0 0 601,736.7031 L743,736.7031 A0,0 0 0 0 743,736.7031 L743,704 L733,694 L676.32,694 L673.24,634.02 L668.32,694 L601,694 A0,0 0 0 0 601,694 " fill="#B0C4DE" style="stroke:#181818;stroke-width:0.5;"/><path d="M733,694 L733,704 L743,704 L733,694 " fill="#B0C4DE" style="stroke:#181818;stroke-width:0.5;"/><text fill="#333333" font-family="sans-serif" font-size="13" lengthAdjust="spacing" textLength="121" x="607" y="712.4951">Gerencia e orquestra</text><text fill="#333333" font-family="sans-serif" font-size="13" lengthAdjust="spacing" textLength="71" x="611" y="728.8467">contêineres.</text></g><!--MD5=[638e1d8386101ae4dbfd4971806e72e8]
link Jupyter Notebook to Spark Framework--><g id="link_Jupyter Notebook_Spark Framework"><path codeLine="112" d="M808.03,227.19 C818.93,235.79 830.47,244.07 842,251 C850.21,255.93 854.42,253.16 862,259 C879.33,272.36 894.9,289.94 907.99,307.51 " fill="none" id="Jupyter Notebook-to-Spark Framework" style="stroke:#181818;stroke-width:1.0;"/><polygon fill="#181818" points="911.27,311.98,909.1689,302.3579,908.3113,307.9493,902.7199,307.0918,911.27,311.98" style="stroke:#181818;stroke-width:1.0;"/></g><!--MD5=[da7615bc784a0da4432b2253c01bae0b]
link Jupyter Notebook to MongoDB--><g id="link_Jupyter Notebook_MongoDB"><path codeLine="113" d="M696.49,227.22 C670.93,257.89 639.79,295.25 614.81,325.23 " fill="none" id="Jupyter Notebook-to-MongoDB" style="stroke:#181818;stroke-width:1.0;"/><polygon fill="#181818" points="611.48,329.22,620.313,324.8635,614.6795,325.3777,614.1653,319.7443,611.48,329.22" style="stroke:#181818;stroke-width:1.0;"/></g><!--MD5=[b84be5730136bc136ff9e2222a43c3db]
link Spark Framework to Docker--><g id="link_Spark Framework_Docker"><path codeLine="115" d="M916.37,448.1 C901.23,477.43 883.88,511.05 870.31,537.33 " fill="none" id="Spark Framework-to-Docker" style="stroke:#181818;stroke-width:1.0;"/><polygon fill="#181818" points="868,541.82,875.6898,535.6664,870.2987,537.3797,868.5854,531.9886,868,541.82" style="stroke:#181818;stroke-width:1.0;"/></g><!--MD5=[1867a6f43f71f3f8adc678102d94e89f]
link MongoDB to Docker Compose--><g id="link_MongoDB_Docker Compose"><path codeLine="116" d="M595.57,430.55 C610.82,460.08 630.19,497.61 645.86,527.98 " fill="none" id="MongoDB-to-Docker Compose" style="stroke:#181818;stroke-width:1.0;"/><polygon fill="#181818" points="648.34,532.79,647.7796,522.9571,646.0526,528.3439,640.6658,526.6169,648.34,532.79" style="stroke:#181818;stroke-width:1.0;"/></g><!--MD5=[fd587994507bd46c3e1a898a72948118]
@startuml

skinparam backgroundColor #EEF9E3
skinparam package {
    BackgroundColor #D3D3D3
    BorderColor #A9A9A9
    FontColor #333333
    Shadowing false
}
skinparam class {
    BackgroundColor #F5F5F5
    BorderColor #A9A9A9
    FontColor #333333
    Shadowing false
}
skinparam note {
    BackgroundColor #B0C4DE
    BorderColor #A9A9A9
    FontColor #333333
    Shadowing false
}

package "IDE" {
    class "Jupyter Notebook" {
        + "Python"
        + "R"
        + "Scala"
        + "Dataframe"
    }
}
note "Análise de dados\n e desenvolvimento." as JupyterNote
JupyterNote .. "Jupyter Notebook"

package "Big Data Tools" {
    class "Spark Framework" {
        + "Spark SQL"
        + "Spark Streaming"
        + "Spark MLlib"
        + "GraphX"
        + "RDD"
        
    }
    class "Hadoop Framework" {
    + "HDFS"
    + "MapReduce"
    + "YARN"
    + "Hive"
    + "HBase"
    + "Hue"
}

class "Additional Tools" {
    + "Trino"
    + "Nifi"
    + "Kafka"
    + "Zookeeper"
}

}

note "Processamento em\n memória para Big Data." as SparkNote
note "Armazenamento distribuído\n e MapReduce." as HadoopNote
SparkNote .. "Spark Framework"
HadoopNote .. "Hadoop Framework"

package "NoSQL Databases" {
    class "MongoDB" {
        + "Collections"
        + "JSON-like documents"
        + "Shards"
    }
    class "Redis" {
        + "In-Memory"
        + "Cache"
        + "Pub/Sub"
    }
    class "Cassandra" {
        + "Distributed"
        + "Decentralized"
    }
    class "Neo4j" {
        + "Nodes"
        + "Relationships"
    }
}

note "Orientado a \n documentos." as MongoDBNote
note "Armazenamento \n chave-valor." as RedisNote
note "Orientado a colunas." as CassandraNote
note "Orientado a grafos." as Neo4jNote
MongoDBNote .. MongoDB
RedisNote .. Redis
CassandraNote .. Cassandra
Neo4jNote .. Neo4j

package "Infraestrutura" {
    class "Docker" {
        + "Containers"
        + "Dockerfile"
    }
    class "Docker Compose" {
        + "Orquestração"
        + "Definição de serviços"
        + "docker-compose.yml"
    }
}

note "Contêineres para\n serviços individuais." as DockerNote
note "Gerencia e orquestra\n contêineres." as DockerComposeNote
Docker .. DockerNote
"Docker Compose" .. DockerComposeNote

"Jupyter Notebook" -down-> "Spark Framework"
"Jupyter Notebook" -down-> MongoDB

"Spark Framework" -down-> Docker
MongoDB -down-> "Docker Compose"

@enduml

PlantUML version 1.2022.7(Mon Aug 22 14:01:30 BRT 2022)
(GPL source distribution)
Java Runtime: Java(TM) SE Runtime Environment
JVM: Java HotSpot(TM) Client VM
Default Encoding: Cp1252
Language: pt
Country: BR
--></g></svg>