<?xml version="1.0" encoding="UTF-8" standalone="no"?><svg xmlns="http://www.w3.org/2000/svg" xmlns:xlink="http://www.w3.org/1999/xlink" contentStyleType="text/css" height="690px" preserveAspectRatio="none" style="width:1199px;height:690px;background:#EEF9E3;" version="1.1" viewBox="0 0 1199 690" width="1199px" zoomAndPan="magnify"><defs/><g><!--MD5=[490233739604cc465c8ef9025fb915fa]
cluster IDE--><g id="cluster_IDE"><path d="M625.5,73 L649.5,73 A3.75,3.75 0 0 1 652,75.5 L659,96.6094 L794.5,96.6094 A2.5,2.5 0 0 1 797,99.1094 L797,223.5 A2.5,2.5 0 0 1 794.5,226 L625.5,226 A2.5,2.5 0 0 1 623,223.5 L623,75.5 A2.5,2.5 0 0 1 625.5,73 " fill="#D3D3D3" style="stroke:#A9A9A9;stroke-width:1.5;"/><line style="stroke:#A9A9A9;stroke-width:1.5;" x1="623" x2="659" y1="96.6094" y2="96.6094"/><text fill="#000000" font-family="sans-serif" font-size="14" font-weight="bold" lengthAdjust="spacing" textLength="23" x="627" y="89.5332">IDE</text></g><!--MD5=[9f66875789d1a6c9b3eb256284f12255]
cluster Big Data Tools--><g id="cluster_Big Data Tools"><path d="M754.5,250 L855.5,250 A3.75,3.75 0 0 1 858,252.5 L865,273.6094 L1113.5,273.6094 A2.5,2.5 0 0 1 1116,276.1094 L1116,417.5 A2.5,2.5 0 0 1 1113.5,420 L754.5,420 A2.5,2.5 0 0 1 752,417.5 L752,252.5 A2.5,2.5 0 0 1 754.5,250 " fill="#D3D3D3" style="stroke:#A9A9A9;stroke-width:1.5;"/><line style="stroke:#A9A9A9;stroke-width:1.5;" x1="752" x2="865" y1="273.6094" y2="273.6094"/><text fill="#000000" font-family="sans-serif" font-size="14" font-weight="bold" lengthAdjust="spacing" textLength="100" x="756" y="266.5332">Big Data Tools</text></g><!--MD5=[f9717d966a4a4603ff1538844b06c243]
cluster NoSQL Databases--><g id="cluster_NoSQL Databases"><path d="M27.5,258.5 L152.5,258.5 A3.75,3.75 0 0 1 155,261 L162,282.1094 L675.5,282.1094 A2.5,2.5 0 0 1 678,284.6094 L678,409 A2.5,2.5 0 0 1 675.5,411.5 L27.5,411.5 A2.5,2.5 0 0 1 25,409 L25,261 A2.5,2.5 0 0 1 27.5,258.5 " fill="#D3D3D3" style="stroke:#A9A9A9;stroke-width:1.5;"/><line style="stroke:#A9A9A9;stroke-width:1.5;" x1="25" x2="162" y1="282.1094" y2="282.1094"/><text fill="#000000" font-family="sans-serif" font-size="14" font-weight="bold" lengthAdjust="spacing" textLength="124" x="29" y="275.0332">NoSQL Databases</text></g><!--MD5=[8a63cbc2f1c780ddf3e229d615ddd269]
cluster Infraestrutura--><g id="cluster_Infraestrutura"><path d="M524.5,444 L622.5,444 A3.75,3.75 0 0 1 625,446.5 L632,467.6094 L853.5,467.6094 A2.5,2.5 0 0 1 856,470.1094 L856,594.5 A2.5,2.5 0 0 1 853.5,597 L524.5,597 A2.5,2.5 0 0 1 522,594.5 L522,446.5 A2.5,2.5 0 0 1 524.5,444 " fill="#D3D3D3" style="stroke:#A9A9A9;stroke-width:1.5;"/><line style="stroke:#A9A9A9;stroke-width:1.5;" x1="522" x2="632" y1="467.6094" y2="467.6094"/><text fill="#000000" font-family="sans-serif" font-size="14" font-weight="bold" lengthAdjust="spacing" textLength="97" x="526" y="460.5332">Infraestrutura</text></g><!--MD5=[480b300d3a7fcef9af84f2029c003cd3]
class Jupyter Notebook--><g id="elem_Jupyter Notebook"><rect codeLine="23" fill="#F5F5F5" height="100.8281" id="Jupyter Notebook" rx="2.5" ry="2.5" style="stroke:#A9A9A9;stroke-width:0.5;" width="142" x="639" y="109"/><ellipse cx="654" cy="125" fill="#ADD1B2" rx="11" ry="11" style="stroke:#181818;stroke-width:1.0;"/><path d="M656.7656,120.875 Q656.9219,120.6563 657.1094,120.5469 Q657.2969,120.4375 657.5156,120.4375 Q657.8906,120.4375 658.125,120.6953 Q658.3594,120.9531 658.3594,121.5625 L658.3594,123.0156 Q658.3594,123.625 658.125,123.8906 Q657.8906,124.1563 657.5156,124.1563 Q657.1719,124.1563 656.9688,123.9531 Q656.7656,123.7656 656.6563,123.25 Q656.6094,122.8906 656.4219,122.7031 Q656.0938,122.3281 655.4844,122.1094 Q654.875,121.8906 654.25,121.8906 Q653.4844,121.8906 652.8516,122.2188 Q652.2188,122.5469 651.7266,123.2969 Q651.2344,124.0469 651.2344,125.0781 L651.2344,126.1719 Q651.2344,127.4063 652.125,128.2266 Q653.0156,129.0469 654.6094,129.0469 Q655.5469,129.0469 656.2031,128.7969 Q656.5938,128.6406 657.0156,128.2031 Q657.2813,127.9375 657.4297,127.8594 Q657.5781,127.7813 657.7813,127.7813 Q658.1094,127.7813 658.3672,128.0391 Q658.625,128.2969 658.625,128.6406 Q658.625,128.9844 658.2813,129.3906 Q657.7813,129.9688 656.9844,130.2969 Q655.9063,130.75 654.6094,130.75 Q653.0938,130.75 651.8906,130.125 Q650.9063,129.625 650.2188,128.5547 Q649.5313,127.4844 649.5313,126.2031 L649.5313,125.0469 Q649.5313,123.7188 650.1484,122.5703 Q650.7656,121.4219 651.8594,120.8047 Q652.9531,120.1875 654.1875,120.1875 Q654.9219,120.1875 655.5703,120.3516 Q656.2188,120.5156 656.7656,120.875 Z " fill="#000000"/><text fill="#333333" font-family="sans-serif" font-size="14" lengthAdjust="spacing" textLength="110" x="668" y="130.7285">Jupyter Notebook</text><line style="stroke:#A9A9A9;stroke-width:0.5;" x1="640" x2="780" y1="141" y2="141"/><ellipse cx="650" cy="155.3047" fill="none" rx="3" ry="3" style="stroke:#038048;stroke-width:1.0;"/><text fill="#333333" font-family="sans-serif" font-size="14" lengthAdjust="spacing" textLength="54" x="659" y="159.5332">"Python"</text><ellipse cx="650" cy="172.9141" fill="none" rx="3" ry="3" style="stroke:#038048;stroke-width:1.0;"/><text fill="#333333" font-family="sans-serif" font-size="14" lengthAdjust="spacing" textLength="20" x="659" y="177.1426">"R"</text><ellipse cx="650" cy="190.5234" fill="none" rx="3" ry="3" style="stroke:#038048;stroke-width:1.0;"/><text fill="#333333" font-family="sans-serif" font-size="14" lengthAdjust="spacing" textLength="45" x="659" y="194.752">"Scala"</text><line style="stroke:#A9A9A9;stroke-width:0.5;" x1="640" x2="780" y1="201.8281" y2="201.8281"/></g><!--MD5=[c8e5fa53c4c92fa61ecda53f3c37e725]
class Spark--><g id="elem_Spark"><rect codeLine="33" fill="#F5F5F5" height="100.8281" id="Spark" rx="2.5" ry="2.5" style="stroke:#A9A9A9;stroke-width:0.5;" width="141" x="768.5" y="294.5"/><ellipse cx="816.25" cy="310.5" fill="#ADD1B2" rx="11" ry="11" style="stroke:#181818;stroke-width:1.0;"/><path d="M819.0156,306.375 Q819.1719,306.1563 819.3594,306.0469 Q819.5469,305.9375 819.7656,305.9375 Q820.1406,305.9375 820.375,306.1953 Q820.6094,306.4531 820.6094,307.0625 L820.6094,308.5156 Q820.6094,309.125 820.375,309.3906 Q820.1406,309.6563 819.7656,309.6563 Q819.4219,309.6563 819.2188,309.4531 Q819.0156,309.2656 818.9063,308.75 Q818.8594,308.3906 818.6719,308.2031 Q818.3438,307.8281 817.7344,307.6094 Q817.125,307.3906 816.5,307.3906 Q815.7344,307.3906 815.1016,307.7188 Q814.4688,308.0469 813.9766,308.7969 Q813.4844,309.5469 813.4844,310.5781 L813.4844,311.6719 Q813.4844,312.9063 814.375,313.7266 Q815.2656,314.5469 816.8594,314.5469 Q817.7969,314.5469 818.4531,314.2969 Q818.8438,314.1406 819.2656,313.7031 Q819.5313,313.4375 819.6797,313.3594 Q819.8281,313.2813 820.0313,313.2813 Q820.3594,313.2813 820.6172,313.5391 Q820.875,313.7969 820.875,314.1406 Q820.875,314.4844 820.5313,314.8906 Q820.0313,315.4688 819.2344,315.7969 Q818.1563,316.25 816.8594,316.25 Q815.3438,316.25 814.1406,315.625 Q813.1563,315.125 812.4688,314.0547 Q811.7813,312.9844 811.7813,311.7031 L811.7813,310.5469 Q811.7813,309.2188 812.3984,308.0703 Q813.0156,306.9219 814.1094,306.3047 Q815.2031,305.6875 816.4375,305.6875 Q817.1719,305.6875 817.8203,305.8516 Q818.4688,306.0156 819.0156,306.375 Z " fill="#000000"/><text fill="#333333" font-family="sans-serif" font-size="14" lengthAdjust="spacing" textLength="37" x="836.75" y="316.2285">Spark</text><line style="stroke:#A9A9A9;stroke-width:0.5;" x1="769.5" x2="908.5" y1="326.5" y2="326.5"/><ellipse cx="779.5" cy="340.8047" fill="none" rx="3" ry="3" style="stroke:#038048;stroke-width:1.0;"/><text fill="#333333" font-family="sans-serif" font-size="14" lengthAdjust="spacing" textLength="115" x="788.5" y="345.0332">"Spark Streaming"</text><ellipse cx="779.5" cy="358.4141" fill="none" rx="3" ry="3" style="stroke:#038048;stroke-width:1.0;"/><text fill="#333333" font-family="sans-serif" font-size="14" lengthAdjust="spacing" textLength="58" x="788.5" y="362.6426">"GraphX"</text><ellipse cx="779.5" cy="376.0234" fill="none" rx="3" ry="3" style="stroke:#038048;stroke-width:1.0;"/><text fill="#333333" font-family="sans-serif" font-size="14" lengthAdjust="spacing" textLength="43" x="788.5" y="380.252">"MLlib"</text><line style="stroke:#A9A9A9;stroke-width:0.5;" x1="769.5" x2="908.5" y1="387.3281" y2="387.3281"/></g><!--MD5=[d4c7bf8e5c58f7a720fba19a0772eb55]
class Hadoop Framework--><g id="elem_Hadoop Framework"><rect codeLine="38" fill="#F5F5F5" height="118.4375" id="Hadoop Framework" rx="2.5" ry="2.5" style="stroke:#A9A9A9;stroke-width:0.5;" width="155" x="944.5" y="286"/><ellipse cx="959.5" cy="302" fill="#ADD1B2" rx="11" ry="11" style="stroke:#181818;stroke-width:1.0;"/><path d="M962.2656,297.875 Q962.4219,297.6563 962.6094,297.5469 Q962.7969,297.4375 963.0156,297.4375 Q963.3906,297.4375 963.625,297.6953 Q963.8594,297.9531 963.8594,298.5625 L963.8594,300.0156 Q963.8594,300.625 963.625,300.8906 Q963.3906,301.1563 963.0156,301.1563 Q962.6719,301.1563 962.4688,300.9531 Q962.2656,300.7656 962.1563,300.25 Q962.1094,299.8906 961.9219,299.7031 Q961.5938,299.3281 960.9844,299.1094 Q960.375,298.8906 959.75,298.8906 Q958.9844,298.8906 958.3516,299.2188 Q957.7188,299.5469 957.2266,300.2969 Q956.7344,301.0469 956.7344,302.0781 L956.7344,303.1719 Q956.7344,304.4063 957.625,305.2266 Q958.5156,306.0469 960.1094,306.0469 Q961.0469,306.0469 961.7031,305.7969 Q962.0938,305.6406 962.5156,305.2031 Q962.7813,304.9375 962.9297,304.8594 Q963.0781,304.7813 963.2813,304.7813 Q963.6094,304.7813 963.8672,305.0391 Q964.125,305.2969 964.125,305.6406 Q964.125,305.9844 963.7813,306.3906 Q963.2813,306.9688 962.4844,307.2969 Q961.4063,307.75 960.1094,307.75 Q958.5938,307.75 957.3906,307.125 Q956.4063,306.625 955.7188,305.5547 Q955.0313,304.4844 955.0313,303.2031 L955.0313,302.0469 Q955.0313,300.7188 955.6484,299.5703 Q956.2656,298.4219 957.3594,297.8047 Q958.4531,297.1875 959.6875,297.1875 Q960.4219,297.1875 961.0703,297.3516 Q961.7188,297.5156 962.2656,297.875 Z " fill="#000000"/><text fill="#333333" font-family="sans-serif" font-size="14" lengthAdjust="spacing" textLength="123" x="973.5" y="307.7285">Hadoop Framework</text><line style="stroke:#A9A9A9;stroke-width:0.5;" x1="945.5" x2="1098.5" y1="318" y2="318"/><ellipse cx="955.5" cy="332.3047" fill="none" rx="3" ry="3" style="stroke:#038048;stroke-width:1.0;"/><text fill="#333333" font-family="sans-serif" font-size="14" lengthAdjust="spacing" textLength="37" x="964.5" y="336.5332">HDFS</text><ellipse cx="955.5" cy="349.9141" fill="none" rx="3" ry="3" style="stroke:#038048;stroke-width:1.0;"/><text fill="#333333" font-family="sans-serif" font-size="14" lengthAdjust="spacing" textLength="76" x="964.5" y="354.1426">MapReduce</text><ellipse cx="955.5" cy="367.5234" fill="none" rx="3" ry="3" style="stroke:#038048;stroke-width:1.0;"/><text fill="#333333" font-family="sans-serif" font-size="14" lengthAdjust="spacing" textLength="37" x="964.5" y="371.752">YARN</text><ellipse cx="955.5" cy="385.1328" fill="none" rx="3" ry="3" style="stroke:#038048;stroke-width:1.0;"/><text fill="#333333" font-family="sans-serif" font-size="14" lengthAdjust="spacing" textLength="27" x="964.5" y="389.3613">Hive</text><line style="stroke:#A9A9A9;stroke-width:0.5;" x1="945.5" x2="1098.5" y1="396.4375" y2="396.4375"/></g><!--MD5=[aea1937f4b67311897318c410219d001]
class MongoDB--><g id="elem_MongoDB"><rect codeLine="52" fill="#F5F5F5" height="100.8281" id="MongoDB" rx="2.5" ry="2.5" style="stroke:#A9A9A9;stroke-width:0.5;" width="170" x="492" y="294.5"/><ellipse cx="541.75" cy="310.5" fill="#ADD1B2" rx="11" ry="11" style="stroke:#181818;stroke-width:1.0;"/><path d="M544.5156,306.375 Q544.6719,306.1563 544.8594,306.0469 Q545.0469,305.9375 545.2656,305.9375 Q545.6406,305.9375 545.875,306.1953 Q546.1094,306.4531 546.1094,307.0625 L546.1094,308.5156 Q546.1094,309.125 545.875,309.3906 Q545.6406,309.6563 545.2656,309.6563 Q544.9219,309.6563 544.7188,309.4531 Q544.5156,309.2656 544.4063,308.75 Q544.3594,308.3906 544.1719,308.2031 Q543.8438,307.8281 543.2344,307.6094 Q542.625,307.3906 542,307.3906 Q541.2344,307.3906 540.6016,307.7188 Q539.9688,308.0469 539.4766,308.7969 Q538.9844,309.5469 538.9844,310.5781 L538.9844,311.6719 Q538.9844,312.9063 539.875,313.7266 Q540.7656,314.5469 542.3594,314.5469 Q543.2969,314.5469 543.9531,314.2969 Q544.3438,314.1406 544.7656,313.7031 Q545.0313,313.4375 545.1797,313.3594 Q545.3281,313.2813 545.5313,313.2813 Q545.8594,313.2813 546.1172,313.5391 Q546.375,313.7969 546.375,314.1406 Q546.375,314.4844 546.0313,314.8906 Q545.5313,315.4688 544.7344,315.7969 Q543.6563,316.25 542.3594,316.25 Q540.8438,316.25 539.6406,315.625 Q538.6563,315.125 537.9688,314.0547 Q537.2813,312.9844 537.2813,311.7031 L537.2813,310.5469 Q537.2813,309.2188 537.8984,308.0703 Q538.5156,306.9219 539.6094,306.3047 Q540.7031,305.6875 541.9375,305.6875 Q542.6719,305.6875 543.3203,305.8516 Q543.9688,306.0156 544.5156,306.375 Z " fill="#000000"/><text fill="#333333" font-family="sans-serif" font-size="14" lengthAdjust="spacing" textLength="62" x="562.25" y="316.2285">MongoDB</text><line style="stroke:#A9A9A9;stroke-width:0.5;" x1="493" x2="661" y1="326.5" y2="326.5"/><ellipse cx="503" cy="340.8047" fill="none" rx="3" ry="3" style="stroke:#038048;stroke-width:1.0;"/><text fill="#333333" font-family="sans-serif" font-size="14" lengthAdjust="spacing" textLength="79" x="512" y="345.0332">"Collections"</text><ellipse cx="503" cy="358.4141" fill="none" rx="3" ry="3" style="stroke:#038048;stroke-width:1.0;"/><text fill="#333333" font-family="sans-serif" font-size="14" lengthAdjust="spacing" textLength="144" x="512" y="362.6426">"JSON-like documents"</text><ellipse cx="503" cy="376.0234" fill="none" rx="3" ry="3" style="stroke:#038048;stroke-width:1.0;"/><text fill="#333333" font-family="sans-serif" font-size="14" lengthAdjust="spacing" textLength="55" x="512" y="380.252">"Shards"</text><line style="stroke:#A9A9A9;stroke-width:0.5;" x1="493" x2="661" y1="387.3281" y2="387.3281"/></g><!--MD5=[e07647c16d73d60ccd38798b3baff9a5]
class Redis--><g id="elem_Redis"><rect codeLine="57" fill="#F5F5F5" height="100.8281" id="Redis" rx="2.5" ry="2.5" style="stroke:#A9A9A9;stroke-width:0.5;" width="102" x="41" y="294.5"/><ellipse cx="71.3" cy="310.5" fill="#ADD1B2" rx="11" ry="11" style="stroke:#181818;stroke-width:1.0;"/><path d="M74.0656,306.375 Q74.2219,306.1563 74.4094,306.0469 Q74.5969,305.9375 74.8156,305.9375 Q75.1906,305.9375 75.425,306.1953 Q75.6594,306.4531 75.6594,307.0625 L75.6594,308.5156 Q75.6594,309.125 75.425,309.3906 Q75.1906,309.6563 74.8156,309.6563 Q74.4719,309.6563 74.2688,309.4531 Q74.0656,309.2656 73.9563,308.75 Q73.9094,308.3906 73.7219,308.2031 Q73.3938,307.8281 72.7844,307.6094 Q72.175,307.3906 71.55,307.3906 Q70.7844,307.3906 70.1516,307.7188 Q69.5188,308.0469 69.0266,308.7969 Q68.5344,309.5469 68.5344,310.5781 L68.5344,311.6719 Q68.5344,312.9063 69.425,313.7266 Q70.3156,314.5469 71.9094,314.5469 Q72.8469,314.5469 73.5031,314.2969 Q73.8938,314.1406 74.3156,313.7031 Q74.5813,313.4375 74.7297,313.3594 Q74.8781,313.2813 75.0813,313.2813 Q75.4094,313.2813 75.6672,313.5391 Q75.925,313.7969 75.925,314.1406 Q75.925,314.4844 75.5813,314.8906 Q75.0813,315.4688 74.2844,315.7969 Q73.2063,316.25 71.9094,316.25 Q70.3938,316.25 69.1906,315.625 Q68.2063,315.125 67.5188,314.0547 Q66.8313,312.9844 66.8313,311.7031 L66.8313,310.5469 Q66.8313,309.2188 67.4484,308.0703 Q68.0656,306.9219 69.1594,306.3047 Q70.2531,305.6875 71.4875,305.6875 Q72.2219,305.6875 72.8703,305.8516 Q73.5188,306.0156 74.0656,306.375 Z " fill="#000000"/><text fill="#333333" font-family="sans-serif" font-size="14" lengthAdjust="spacing" textLength="36" x="88.7" y="316.2285">Redis</text><line style="stroke:#A9A9A9;stroke-width:0.5;" x1="42" x2="142" y1="326.5" y2="326.5"/><ellipse cx="52" cy="340.8047" fill="none" rx="3" ry="3" style="stroke:#038048;stroke-width:1.0;"/><text fill="#333333" font-family="sans-serif" font-size="14" lengthAdjust="spacing" textLength="76" x="61" y="345.0332">"In-Memory"</text><ellipse cx="52" cy="358.4141" fill="none" rx="3" ry="3" style="stroke:#038048;stroke-width:1.0;"/><text fill="#333333" font-family="sans-serif" font-size="14" lengthAdjust="spacing" textLength="51" x="61" y="362.6426">"Cache"</text><ellipse cx="52" cy="376.0234" fill="none" rx="3" ry="3" style="stroke:#038048;stroke-width:1.0;"/><text fill="#333333" font-family="sans-serif" font-size="14" lengthAdjust="spacing" textLength="64" x="61" y="380.252">"Pub/Sub"</text><line style="stroke:#A9A9A9;stroke-width:0.5;" x1="42" x2="142" y1="387.3281" y2="387.3281"/></g><!--MD5=[31096ecdc74a086c345187ae466806f2]
class Cassandra--><g id="elem_Cassandra"><rect codeLine="62" fill="#F5F5F5" height="83.2188" id="Cassandra" rx="2.5" ry="2.5" style="stroke:#A9A9A9;stroke-width:0.5;" width="122" x="178" y="303.5"/><ellipse cx="202.45" cy="319.5" fill="#ADD1B2" rx="11" ry="11" style="stroke:#181818;stroke-width:1.0;"/><path d="M205.2156,315.375 Q205.3719,315.1563 205.5594,315.0469 Q205.7469,314.9375 205.9656,314.9375 Q206.3406,314.9375 206.575,315.1953 Q206.8094,315.4531 206.8094,316.0625 L206.8094,317.5156 Q206.8094,318.125 206.575,318.3906 Q206.3406,318.6563 205.9656,318.6563 Q205.6219,318.6563 205.4188,318.4531 Q205.2156,318.2656 205.1063,317.75 Q205.0594,317.3906 204.8719,317.2031 Q204.5438,316.8281 203.9344,316.6094 Q203.325,316.3906 202.7,316.3906 Q201.9344,316.3906 201.3016,316.7188 Q200.6688,317.0469 200.1766,317.7969 Q199.6844,318.5469 199.6844,319.5781 L199.6844,320.6719 Q199.6844,321.9063 200.575,322.7266 Q201.4656,323.5469 203.0594,323.5469 Q203.9969,323.5469 204.6531,323.2969 Q205.0438,323.1406 205.4656,322.7031 Q205.7313,322.4375 205.8797,322.3594 Q206.0281,322.2813 206.2313,322.2813 Q206.5594,322.2813 206.8172,322.5391 Q207.075,322.7969 207.075,323.1406 Q207.075,323.4844 206.7313,323.8906 Q206.2313,324.4688 205.4344,324.7969 Q204.3563,325.25 203.0594,325.25 Q201.5438,325.25 200.3406,324.625 Q199.3563,324.125 198.6688,323.0547 Q197.9813,321.9844 197.9813,320.7031 L197.9813,319.5469 Q197.9813,318.2188 198.5984,317.0703 Q199.2156,315.9219 200.3094,315.3047 Q201.4031,314.6875 202.6375,314.6875 Q203.3719,314.6875 204.0203,314.8516 Q204.6688,315.0156 205.2156,315.375 Z " fill="#000000"/><text fill="#333333" font-family="sans-serif" font-size="14" lengthAdjust="spacing" textLength="69" x="218.55" y="325.2285">Cassandra</text><line style="stroke:#A9A9A9;stroke-width:0.5;" x1="179" x2="299" y1="335.5" y2="335.5"/><ellipse cx="189" cy="349.8047" fill="none" rx="3" ry="3" style="stroke:#038048;stroke-width:1.0;"/><text fill="#333333" font-family="sans-serif" font-size="14" lengthAdjust="spacing" textLength="78" x="198" y="354.0332">"Distributed"</text><ellipse cx="189" cy="367.4141" fill="none" rx="3" ry="3" style="stroke:#038048;stroke-width:1.0;"/><text fill="#333333" font-family="sans-serif" font-size="14" lengthAdjust="spacing" textLength="96" x="198" y="371.6426">"Decentralized"</text><line style="stroke:#A9A9A9;stroke-width:0.5;" x1="179" x2="299" y1="378.7188" y2="378.7188"/></g><!--MD5=[26b96b1b68645cdc08ee16dbf38167dd]
class Neo4j--><g id="elem_Neo4j"><rect codeLine="66" fill="#F5F5F5" height="83.2188" id="Neo4j" rx="2.5" ry="2.5" style="stroke:#A9A9A9;stroke-width:0.5;" width="121" x="335.5" y="303.5"/><ellipse cx="374.35" cy="319.5" fill="#ADD1B2" rx="11" ry="11" style="stroke:#181818;stroke-width:1.0;"/><path d="M377.1156,315.375 Q377.2719,315.1563 377.4594,315.0469 Q377.6469,314.9375 377.8656,314.9375 Q378.2406,314.9375 378.475,315.1953 Q378.7094,315.4531 378.7094,316.0625 L378.7094,317.5156 Q378.7094,318.125 378.475,318.3906 Q378.2406,318.6563 377.8656,318.6563 Q377.5219,318.6563 377.3188,318.4531 Q377.1156,318.2656 377.0063,317.75 Q376.9594,317.3906 376.7719,317.2031 Q376.4438,316.8281 375.8344,316.6094 Q375.225,316.3906 374.6,316.3906 Q373.8344,316.3906 373.2016,316.7188 Q372.5688,317.0469 372.0766,317.7969 Q371.5844,318.5469 371.5844,319.5781 L371.5844,320.6719 Q371.5844,321.9063 372.475,322.7266 Q373.3656,323.5469 374.9594,323.5469 Q375.8969,323.5469 376.5531,323.2969 Q376.9438,323.1406 377.3656,322.7031 Q377.6313,322.4375 377.7797,322.3594 Q377.9281,322.2813 378.1313,322.2813 Q378.4594,322.2813 378.7172,322.5391 Q378.975,322.7969 378.975,323.1406 Q378.975,323.4844 378.6313,323.8906 Q378.1313,324.4688 377.3344,324.7969 Q376.2563,325.25 374.9594,325.25 Q373.4438,325.25 372.2406,324.625 Q371.2563,324.125 370.5688,323.0547 Q369.8813,321.9844 369.8813,320.7031 L369.8813,319.5469 Q369.8813,318.2188 370.4984,317.0703 Q371.1156,315.9219 372.2094,315.3047 Q373.3031,314.6875 374.5375,314.6875 Q375.2719,314.6875 375.9203,314.8516 Q376.5688,315.0156 377.1156,315.375 Z " fill="#000000"/><text fill="#333333" font-family="sans-serif" font-size="14" lengthAdjust="spacing" textLength="36" x="393.65" y="325.2285">Neo4j</text><line style="stroke:#A9A9A9;stroke-width:0.5;" x1="336.5" x2="455.5" y1="335.5" y2="335.5"/><ellipse cx="346.5" cy="349.8047" fill="none" rx="3" ry="3" style="stroke:#038048;stroke-width:1.0;"/><text fill="#333333" font-family="sans-serif" font-size="14" lengthAdjust="spacing" textLength="50" x="355.5" y="354.0332">"Nodes"</text><ellipse cx="346.5" cy="367.4141" fill="none" rx="3" ry="3" style="stroke:#038048;stroke-width:1.0;"/><text fill="#333333" font-family="sans-serif" font-size="14" lengthAdjust="spacing" textLength="95" x="355.5" y="371.6426">"Relationships"</text><line style="stroke:#A9A9A9;stroke-width:0.5;" x1="336.5" x2="455.5" y1="378.7188" y2="378.7188"/></g><!--MD5=[3b00a3ba944e7dbba797678f3d263439]
class Docker--><g id="elem_Docker"><rect codeLine="82" fill="#F5F5F5" height="83.2188" id="Docker" rx="2.5" ry="2.5" style="stroke:#A9A9A9;stroke-width:0.5;" width="95" x="744.5" y="489"/><ellipse cx="767.6" cy="505" fill="#ADD1B2" rx="11" ry="11" style="stroke:#181818;stroke-width:1.0;"/><path d="M770.3656,500.875 Q770.5219,500.6563 770.7094,500.5469 Q770.8969,500.4375 771.1156,500.4375 Q771.4906,500.4375 771.725,500.6953 Q771.9594,500.9531 771.9594,501.5625 L771.9594,503.0156 Q771.9594,503.625 771.725,503.8906 Q771.4906,504.1563 771.1156,504.1563 Q770.7719,504.1563 770.5688,503.9531 Q770.3656,503.7656 770.2563,503.25 Q770.2094,502.8906 770.0219,502.7031 Q769.6938,502.3281 769.0844,502.1094 Q768.475,501.8906 767.85,501.8906 Q767.0844,501.8906 766.4516,502.2188 Q765.8188,502.5469 765.3266,503.2969 Q764.8344,504.0469 764.8344,505.0781 L764.8344,506.1719 Q764.8344,507.4063 765.725,508.2266 Q766.6156,509.0469 768.2094,509.0469 Q769.1469,509.0469 769.8031,508.7969 Q770.1938,508.6406 770.6156,508.2031 Q770.8813,507.9375 771.0297,507.8594 Q771.1781,507.7813 771.3813,507.7813 Q771.7094,507.7813 771.9672,508.0391 Q772.225,508.2969 772.225,508.6406 Q772.225,508.9844 771.8813,509.3906 Q771.3813,509.9688 770.5844,510.2969 Q769.5063,510.75 768.2094,510.75 Q766.6938,510.75 765.4906,510.125 Q764.5063,509.625 763.8188,508.5547 Q763.1313,507.4844 763.1313,506.2031 L763.1313,505.0469 Q763.1313,503.7188 763.7484,502.5703 Q764.3656,501.4219 765.4594,500.8047 Q766.5531,500.1875 767.7875,500.1875 Q768.5219,500.1875 769.1703,500.3516 Q769.8188,500.5156 770.3656,500.875 Z " fill="#000000"/><text fill="#333333" font-family="sans-serif" font-size="14" lengthAdjust="spacing" textLength="45" x="783.4" y="510.7285">Docker</text><line style="stroke:#A9A9A9;stroke-width:0.5;" x1="745.5" x2="838.5" y1="521" y2="521"/><ellipse cx="755.5" cy="535.3047" fill="none" rx="3" ry="3" style="stroke:#038048;stroke-width:1.0;"/><text fill="#333333" font-family="sans-serif" font-size="14" lengthAdjust="spacing" textLength="69" x="764.5" y="539.5332">Containers</text><ellipse cx="755.5" cy="552.9141" fill="none" rx="3" ry="3" style="stroke:#038048;stroke-width:1.0;"/><text fill="#333333" font-family="sans-serif" font-size="14" lengthAdjust="spacing" textLength="63" x="764.5" y="557.1426">Dockerfile</text><line style="stroke:#A9A9A9;stroke-width:0.5;" x1="745.5" x2="838.5" y1="564.2188" y2="564.2188"/></g><!--MD5=[7991ace91c3d002c786832d182c77ab7]
class Docker Compose--><g id="elem_Docker Compose"><rect codeLine="86" fill="#F5F5F5" height="100.8281" id="Docker Compose" rx="2.5" ry="2.5" style="stroke:#A9A9A9;stroke-width:0.5;" width="171" x="538.5" y="480"/><ellipse cx="567" cy="496" fill="#ADD1B2" rx="11" ry="11" style="stroke:#181818;stroke-width:1.0;"/><path d="M569.7656,491.875 Q569.9219,491.6563 570.1094,491.5469 Q570.2969,491.4375 570.5156,491.4375 Q570.8906,491.4375 571.125,491.6953 Q571.3594,491.9531 571.3594,492.5625 L571.3594,494.0156 Q571.3594,494.625 571.125,494.8906 Q570.8906,495.1563 570.5156,495.1563 Q570.1719,495.1563 569.9688,494.9531 Q569.7656,494.7656 569.6563,494.25 Q569.6094,493.8906 569.4219,493.7031 Q569.0938,493.3281 568.4844,493.1094 Q567.875,492.8906 567.25,492.8906 Q566.4844,492.8906 565.8516,493.2188 Q565.2188,493.5469 564.7266,494.2969 Q564.2344,495.0469 564.2344,496.0781 L564.2344,497.1719 Q564.2344,498.4063 565.125,499.2266 Q566.0156,500.0469 567.6094,500.0469 Q568.5469,500.0469 569.2031,499.7969 Q569.5938,499.6406 570.0156,499.2031 Q570.2813,498.9375 570.4297,498.8594 Q570.5781,498.7813 570.7813,498.7813 Q571.1094,498.7813 571.3672,499.0391 Q571.625,499.2969 571.625,499.6406 Q571.625,499.9844 571.2813,500.3906 Q570.7813,500.9688 569.9844,501.2969 Q568.9063,501.75 567.6094,501.75 Q566.0938,501.75 564.8906,501.125 Q563.9063,500.625 563.2188,499.5547 Q562.5313,498.4844 562.5313,497.2031 L562.5313,496.0469 Q562.5313,494.7188 563.1484,493.5703 Q563.7656,492.4219 564.8594,491.8047 Q565.9531,491.1875 567.1875,491.1875 Q567.9219,491.1875 568.5703,491.3516 Q569.2188,491.5156 569.7656,491.875 Z " fill="#000000"/><text fill="#333333" font-family="sans-serif" font-size="14" lengthAdjust="spacing" textLength="109" x="584" y="501.7285">Docker Compose</text><line style="stroke:#A9A9A9;stroke-width:0.5;" x1="539.5" x2="708.5" y1="512" y2="512"/><ellipse cx="549.5" cy="526.3047" fill="none" rx="3" ry="3" style="stroke:#038048;stroke-width:1.0;"/><text fill="#333333" font-family="sans-serif" font-size="14" lengthAdjust="spacing" textLength="97" x="558.5" y="530.5332">"Orquestração"</text><ellipse cx="549.5" cy="543.9141" fill="none" rx="3" ry="3" style="stroke:#038048;stroke-width:1.0;"/><text fill="#333333" font-family="sans-serif" font-size="14" lengthAdjust="spacing" textLength="145" x="558.5" y="548.1426">"Definição de serviços"</text><ellipse cx="549.5" cy="561.5234" fill="none" rx="3" ry="3" style="stroke:#038048;stroke-width:1.0;"/><text fill="#333333" font-family="sans-serif" font-size="14" lengthAdjust="spacing" textLength="140" x="558.5" y="565.752">"docker-compose.yml"</text><line style="stroke:#A9A9A9;stroke-width:0.5;" x1="539.5" x2="708.5" y1="572.8281" y2="572.8281"/></g><g id="elem_JupyterNote"><path d="M643,6 L643,48.7031 A0,0 0 0 0 643,48.7031 L706,48.7031 L710,108.82 L714,48.7031 L777,48.7031 A0,0 0 0 0 777,48.7031 L777,16 L767,6 L643,6 A0,0 0 0 0 643,6 " fill="#B0C4DE" style="stroke:#181818;stroke-width:0.5;"/><path d="M767,6 L767,16 L777,16 L767,6 " fill="#B0C4DE" style="stroke:#181818;stroke-width:0.5;"/><text fill="#333333" font-family="sans-serif" font-size="13" lengthAdjust="spacing" textLength="100" x="649" y="24.4951">Análise de dados</text><text fill="#333333" font-family="sans-serif" font-size="13" lengthAdjust="spacing" textLength="109" x="653" y="40.8467">e desenvolvimento.</text></g><g id="elem_SparkNote"><path d="M816,138 L816,180.7031 A0,0 0 0 0 816,180.7031 L886.46,180.7031 L854.67,294.43 L894.46,180.7031 L978,180.7031 A0,0 0 0 0 978,180.7031 L978,148 L968,138 L816,138 A0,0 0 0 0 816,138 " fill="#B0C4DE" style="stroke:#181818;stroke-width:0.5;"/><path d="M968,138 L968,148 L978,148 L968,138 " fill="#B0C4DE" style="stroke:#181818;stroke-width:0.5;"/><text fill="#333333" font-family="sans-serif" font-size="13" lengthAdjust="spacing" textLength="113" x="822" y="156.4951">Processamento em</text><text fill="#333333" font-family="sans-serif" font-size="13" lengthAdjust="spacing" textLength="137" x="826" y="172.8467">memória para Big Data.</text></g><g id="elem_HadoopNote"><path d="M1013.5,138 L1013.5,180.7031 A0,0 0 0 0 1013.5,180.7031 L1089.87,180.7031 L1047.68,285.83 L1097.87,180.7031 L1192.5,180.7031 A0,0 0 0 0 1192.5,180.7031 L1192.5,148 L1182.5,138 L1013.5,138 A0,0 0 0 0 1013.5,138 " fill="#B0C4DE" style="stroke:#181818;stroke-width:0.5;"/><path d="M1182.5,138 L1182.5,148 L1192.5,148 L1182.5,138 " fill="#B0C4DE" style="stroke:#181818;stroke-width:0.5;"/><text fill="#333333" font-family="sans-serif" font-size="13" lengthAdjust="spacing" textLength="158" x="1019.5" y="156.4951">Armazenamento distribuído</text><text fill="#333333" font-family="sans-serif" font-size="13" lengthAdjust="spacing" textLength="84" x="1023.5" y="172.8467">e MapReduce.</text></g><g id="elem_MongoDBNote"><path d="M504,138 L504,180.7031 A0,0 0 0 0 504,180.7031 L552.59,180.7031 L570.79,294.43 L560.59,180.7031 L604,180.7031 A0,0 0 0 0 604,180.7031 L604,148 L594,138 L504,138 A0,0 0 0 0 504,138 " fill="#B0C4DE" style="stroke:#181818;stroke-width:0.5;"/><path d="M594,138 L594,148 L604,148 L594,138 " fill="#B0C4DE" style="stroke:#181818;stroke-width:0.5;"/><text fill="#333333" font-family="sans-serif" font-size="13" lengthAdjust="spacing" textLength="67" x="510" y="156.4951">Orientado a</text><text fill="#333333" font-family="sans-serif" font-size="13" lengthAdjust="spacing" textLength="75" x="514" y="172.8467">documentos.</text></g><g id="elem_RedisNote"><path d="M6,138 L6,180.7031 A0,0 0 0 0 6,180.7031 L64.93,180.7031 L84.98,294.43 L72.93,180.7031 L126,180.7031 A0,0 0 0 0 126,180.7031 L126,148 L116,138 L6,138 A0,0 0 0 0 6,138 " fill="#B0C4DE" style="stroke:#181818;stroke-width:0.5;"/><path d="M116,138 L116,148 L126,148 L116,138 " fill="#B0C4DE" style="stroke:#181818;stroke-width:0.5;"/><text fill="#333333" font-family="sans-serif" font-size="13" lengthAdjust="spacing" textLength="95" x="12" y="156.4951">Armazenamento</text><text fill="#333333" font-family="sans-serif" font-size="13" lengthAdjust="spacing" textLength="67" x="16" y="172.8467">chave-valor.</text></g><g id="elem_CassandraNote"><path d="M161.5,146.5 L161.5,172.8516 A0,0 0 0 0 161.5,172.8516 L228.46,172.8516 L237.44,303.23 L236.46,172.8516 L302.5,172.8516 A0,0 0 0 0 302.5,172.8516 L302.5,156.5 L292.5,146.5 L161.5,146.5 A0,0 0 0 0 161.5,146.5 " fill="#B0C4DE" style="stroke:#181818;stroke-width:0.5;"/><path d="M292.5,146.5 L292.5,156.5 L302.5,156.5 L292.5,146.5 " fill="#B0C4DE" style="stroke:#181818;stroke-width:0.5;"/><text fill="#333333" font-family="sans-serif" font-size="13" lengthAdjust="spacing" textLength="120" x="167.5" y="164.9951">Orientado a colunas.</text></g><g id="elem_Neo4jNote"><path d="M337.5,146.5 L337.5,172.8516 A0,0 0 0 0 337.5,172.8516 L398.54,172.8516 L397.56,303.23 L406.54,172.8516 L468.5,172.8516 A0,0 0 0 0 468.5,172.8516 L468.5,156.5 L458.5,146.5 L337.5,146.5 A0,0 0 0 0 337.5,146.5 " fill="#B0C4DE" style="stroke:#181818;stroke-width:0.5;"/><path d="M458.5,146.5 L458.5,156.5 L468.5,156.5 L458.5,146.5 " fill="#B0C4DE" style="stroke:#181818;stroke-width:0.5;"/><text fill="#333333" font-family="sans-serif" font-size="13" lengthAdjust="spacing" textLength="110" x="343.5" y="164.9951">Orientado a grafos.</text></g><g id="elem_DockerNote"><path d="M726.5,641 L726.5,683.7031 A0,0 0 0 0 726.5,683.7031 L865.5,683.7031 A0,0 0 0 0 865.5,683.7031 L865.5,651 L855.5,641 L799.36,641 L793.25,572.28 L791.36,641 L726.5,641 A0,0 0 0 0 726.5,641 " fill="#B0C4DE" style="stroke:#181818;stroke-width:0.5;"/><path d="M855.5,641 L855.5,651 L865.5,651 L855.5,641 " fill="#B0C4DE" style="stroke:#181818;stroke-width:0.5;"/><text fill="#333333" font-family="sans-serif" font-size="13" lengthAdjust="spacing" textLength="98" x="732.5" y="659.4951">Contêineres para</text><text fill="#333333" font-family="sans-serif" font-size="13" lengthAdjust="spacing" textLength="114" x="736.5" y="675.8467">serviços individuais.</text></g><g id="elem_DockerComposeNote"><path d="M549,641 L549,683.7031 A0,0 0 0 0 549,683.7031 L691,683.7031 A0,0 0 0 0 691,683.7031 L691,651 L681,641 L624.63,641 L622.48,581.02 L616.63,641 L549,641 A0,0 0 0 0 549,641 " fill="#B0C4DE" style="stroke:#181818;stroke-width:0.5;"/><path d="M681,641 L681,651 L691,651 L681,641 " fill="#B0C4DE" style="stroke:#181818;stroke-width:0.5;"/><text fill="#333333" font-family="sans-serif" font-size="13" lengthAdjust="spacing" textLength="121" x="555" y="659.4951">Gerencia e orquestra</text><text fill="#333333" font-family="sans-serif" font-size="13" lengthAdjust="spacing" textLength="71" x="559" y="675.8467">contêineres.</text></g><!--MD5=[60889af6b1138a309546f74eaf19b619]
link Jupyter Notebook to Spark--><g id="link_Jupyter Notebook_Spark"><path codeLine="98" d="M744.91,210.16 C762.26,234.84 783.26,264.71 801.02,289.97 " fill="none" id="Jupyter Notebook-to-Spark" style="stroke:#181818;stroke-width:1.0;"/><polygon fill="#181818" points="804.06,294.3,802.1576,284.6366,801.185,290.2092,795.6124,289.2366,804.06,294.3" style="stroke:#181818;stroke-width:1.0;"/></g><!--MD5=[da7615bc784a0da4432b2253c01bae0b]
link Jupyter Notebook to MongoDB--><g id="link_Jupyter Notebook_MongoDB"><path codeLine="99" d="M674.01,210.16 C656.12,234.84 634.47,264.71 616.16,289.97 " fill="none" id="Jupyter Notebook-to-MongoDB" style="stroke:#181818;stroke-width:1.0;"/><polygon fill="#181818" points="613.02,294.3,621.5391,289.3579,615.9532,290.2508,615.0604,284.6648,613.02,294.3" style="stroke:#181818;stroke-width:1.0;"/></g><!--MD5=[b747db97fc9ffc54c5f47a2af8a16441]
link Spark to Docker--><g id="link_Spark_Docker"><path codeLine="101" d="M826.28,395.66 C819.24,423.14 810.56,457.05 803.69,483.86 " fill="none" id="Spark-to-Docker" style="stroke:#181818;stroke-width:1.0;"/><polygon fill="#181818" points="802.43,488.78,808.5417,481.0568,803.6729,483.9369,800.7928,479.0682,802.43,488.78" style="stroke:#181818;stroke-width:1.0;"/></g><!--MD5=[1867a6f43f71f3f8adc678102d94e89f]
link MongoDB to Docker Compose--><g id="link_MongoDB_Docker Compose"><path codeLine="102" d="M589.72,395.66 C595.99,420.14 603.57,449.72 610,474.84 " fill="none" id="MongoDB-to-Docker Compose" style="stroke:#181818;stroke-width:1.0;"/><polygon fill="#181818" points="611.27,479.8,612.9072,470.0882,610.0271,474.9569,605.1583,472.0768,611.27,479.8" style="stroke:#181818;stroke-width:1.0;"/></g><!--MD5=[d7d24c9e0d45628aa1f1a681f69d8afa]
@startuml

skinparam backgroundColor #EEF9E3
skinparam package {
    BackgroundColor #D3D3D3
    BorderColor #A9A9A9
    FontColor #333333
    Shadowing false
}
skinparam class {
    BackgroundColor #F5F5F5
    BorderColor #A9A9A9
    FontColor #333333
    Shadowing false
}
skinparam note {
    BackgroundColor #B0C4DE
    BorderColor #A9A9A9
    FontColor #333333
    Shadowing false
}

package "IDE" {
    class "Jupyter Notebook" {
        + "Python"
        + "R"
        + "Scala"
    }
}
note "Análise de dados\n e desenvolvimento." as JupyterNote
JupyterNote .. "Jupyter Notebook"

package "Big Data Tools" {
    class "Spark" {
        + "Spark Streaming"
        + "GraphX"
        + "MLlib"
    }
    class "Hadoop Framework" {
        + HDFS
        + MapReduce
        + YARN
        + Hive
    }
}

note "Processamento em\n memória para Big Data." as SparkNote
note "Armazenamento distribuído\n e MapReduce." as HadoopNote
SparkNote .. Spark
HadoopNote .. "Hadoop Framework"

package "NoSQL Databases" {
    class "MongoDB" {
        + "Collections"
        + "JSON-like documents"
        + "Shards"
    }
    class "Redis" {
        + "In-Memory"
        + "Cache"
        + "Pub/Sub"
    }
    class "Cassandra" {
        + "Distributed"
        + "Decentralized"
    }
    class "Neo4j" {
        + "Nodes"
        + "Relationships"
    }
}

note "Orientado a \n documentos." as MongoDBNote
note "Armazenamento \n chave-valor." as RedisNote
note "Orientado a colunas." as CassandraNote
note "Orientado a grafos." as Neo4jNote
MongoDBNote .. MongoDB
RedisNote .. Redis
CassandraNote .. Cassandra
Neo4jNote .. Neo4j

package "Infraestrutura" {
    class "Docker" {
        + Containers
        + Dockerfile
    }
    class "Docker Compose" {
        + "Orquestração"
        + "Definição de serviços"
        + "docker-compose.yml"
    }
}

note "Contêineres para\n serviços individuais." as DockerNote
note "Gerencia e orquestra\n contêineres." as DockerComposeNote
Docker .. DockerNote
"Docker Compose" .. DockerComposeNote

"Jupyter Notebook" -down-> Spark
"Jupyter Notebook" -down-> MongoDB

Spark -down-> Docker
MongoDB -down-> "Docker Compose"

@enduml

PlantUML version 1.2022.7(Mon Aug 22 14:01:30 BRT 2022)
(GPL source distribution)
Java Runtime: Java(TM) SE Runtime Environment
JVM: Java HotSpot(TM) Client VM
Default Encoding: Cp1252
Language: pt
Country: BR
--></g></svg>